<?xml version="1.0" encoding="utf-8"?>
<!-- Generator: Adobe Illustrator 19.2.1, SVG Export Plug-In . SVG Version: 6.00 Build 0)  -->
<svg version="1.1" xmlns="http://www.w3.org/2000/svg" xmlns:xlink="http://www.w3.org/1999/xlink" x="0px" y="0px"
	 viewBox="0 0 100 100" style="enable-background:new 0 0 100 100;" xml:space="preserve">
<style type="text/css">
	.st0{fill:#FFA400;}
	.st1{fill:#FFC300;}
	.st2{fill:#BECD00;}
	.st3{fill:#964B00;}
	.st4{fill:#713A00;}
	.st5{fill:#65B32E;}
	.st6{fill:#008737;}
	.st7{fill:#E62D87;}
	.st8{fill:#FF7BAC;}
	.st9{fill:#FCEE21;}
	.st10{fill:#CCCCCC;}
	.st11{fill:#B3B3B3;}
</style>
<g id="Calque_11">
</g>
<g id="Calque_12">
</g>
<g id="Calque_1">
</g>
<g id="Calque_8">
</g>
<g id="Calque_6">
</g>
<g id="Calque_4">
</g>
<g id="Pictos">
	<g>
		<path class="st10" d="M49.8,4.3c0,0,0,0.1-0.1,0.4c0,0.3-0.1,0.6-0.2,1.1c-0.1,0.5-0.2,1-0.3,1.7c-0.1,0.7-0.2,1.4-0.3,2.2
			c-0.1,0.8-0.2,1.7-0.3,2.6c-0.1,0.5-0.1,0.9-0.1,1.4c0,0.5-0.1,1-0.1,1.5c-0.1,1-0.1,2.1-0.2,3.1c0,1.1-0.1,2.1-0.1,3.2
			c0,0.5,0,1.1,0,1.6c0,0.5,0,1.1,0,1.6c0,1.1,0,2.1,0,3.1c0.1,2,0.3,3.9,0.5,5.5c0.1,0.4,0.1,0.8,0.2,1.1c-1.8,0.5-3.2,2.2-3.2,4.2
			c0,0.2,0,0.3,0,0.5c-0.4,0.1-0.7,0.2-1.1,0.3c-1.6,0.4-3.4,0.9-5.3,1.6c-0.9,0.4-1.9,0.7-2.9,1.2c-0.5,0.2-1,0.4-1.5,0.6
			c-0.5,0.2-1,0.4-1.5,0.7c-1,0.4-2,0.9-2.9,1.3c-1,0.5-1.9,0.9-2.8,1.4c-0.5,0.2-0.9,0.5-1.3,0.7c-0.4,0.2-0.9,0.4-1.3,0.7
			c-0.8,0.4-1.6,0.9-2.3,1.3c-0.7,0.4-1.3,0.8-1.9,1.1c-0.6,0.3-1.1,0.7-1.5,0.9c-0.4,0.3-0.7,0.5-0.9,0.6c-0.2,0.1-0.3,0.2-0.3,0.2
			c-0.1,0-0.1,0.1-0.1,0.2c0,0.1,0.1,0.2,0.3,0.2c0,0,0.1,0,0.4-0.1c0.3,0,0.6-0.1,1.1-0.2c0.5-0.1,1-0.2,1.7-0.4
			c0.6-0.2,1.4-0.3,2.2-0.6c0.8-0.2,1.6-0.5,2.5-0.7c0.4-0.1,0.9-0.3,1.4-0.4c0.5-0.1,0.9-0.3,1.4-0.5c1-0.3,1.9-0.7,2.9-1
			c1-0.4,2-0.7,3-1.1c0.5-0.2,1-0.4,1.5-0.6c0.5-0.2,1-0.4,1.5-0.6c1-0.4,1.9-0.8,2.9-1.2c1.8-0.8,3.5-1.8,4.9-2.6
			c0.3-0.2,0.7-0.4,1-0.6c0.5,0.6,1.2,1.1,1.9,1.3v52.9H50V4.2C49.9,4.2,49.8,4.2,49.8,4.3z"/>
		<path class="st11" d="M81.9,51.8c0,0-0.1-0.1-0.3-0.2c-0.2-0.1-0.5-0.4-0.9-0.6c-0.4-0.3-0.9-0.6-1.5-0.9
			c-0.6-0.3-1.2-0.7-1.9-1.1c-0.7-0.4-1.5-0.8-2.3-1.3c-0.4-0.2-0.8-0.4-1.3-0.7c-0.4-0.2-0.9-0.5-1.3-0.7c-0.9-0.5-1.8-0.9-2.8-1.4
			c-1-0.4-1.9-0.9-2.9-1.3c-0.5-0.2-1-0.4-1.5-0.7c-0.5-0.2-1-0.4-1.5-0.6c-1-0.4-1.9-0.8-2.9-1.2c-1.9-0.7-3.7-1.2-5.3-1.6
			c-0.4-0.1-0.8-0.2-1.1-0.3c0-0.2,0-0.3,0-0.5c0-2-1.3-3.7-3.2-4.2c0.1-0.4,0.1-0.7,0.2-1.1c0.2-1.6,0.5-3.5,0.5-5.5
			c0-1,0.1-2.1,0-3.1c0-0.5,0-1.1,0-1.6c0-0.5,0-1.1,0-1.6c0-1.1-0.1-2.2-0.1-3.2c-0.1-1.1-0.1-2.1-0.2-3.1c0-0.5-0.1-1-0.1-1.5
			c0-0.5-0.1-1-0.1-1.4c-0.1-0.9-0.2-1.8-0.3-2.6c-0.1-0.8-0.2-1.5-0.3-2.2c-0.1-0.7-0.2-1.2-0.3-1.7c-0.1-0.5-0.2-0.8-0.2-1.1
			c-0.1-0.3-0.1-0.4-0.1-0.4c0-0.1-0.1-0.2-0.2-0.2c0,0,0,0,0,0v91.7h1.5V42.9c0.8-0.3,1.4-0.7,1.9-1.3c0.3,0.2,0.6,0.4,1,0.6
			c1.4,0.9,3.1,1.8,4.9,2.6c0.9,0.4,1.9,0.8,2.9,1.2c0.5,0.2,1,0.4,1.5,0.6c0.5,0.2,1,0.4,1.5,0.6c1,0.4,2,0.8,3,1.1
			c1,0.4,2,0.7,2.9,1c0.5,0.2,0.9,0.3,1.4,0.5c0.5,0.1,0.9,0.3,1.4,0.4c0.9,0.3,1.7,0.5,2.5,0.7c0.8,0.2,1.5,0.4,2.2,0.6
			c0.6,0.2,1.2,0.3,1.7,0.4c0.5,0.1,0.8,0.2,1.1,0.2c0.3,0,0.4,0.1,0.4,0.1c0.1,0,0.2,0,0.2-0.1C82,52,82,51.9,81.9,51.8z"/>
	</g>
</g>
<g id="Palisade">
</g>
<g id="Calque_2">
</g>
<g id="Calque_5">
</g>
</svg>
