<?xml version="1.0" encoding="utf-8"?>
<!-- Generator: Adobe Illustrator 19.2.1, SVG Export Plug-In . SVG Version: 6.00 Build 0)  -->
<svg version="1.1" xmlns="http://www.w3.org/2000/svg" xmlns:xlink="http://www.w3.org/1999/xlink" x="0px" y="0px"
	 viewBox="0 0 100 100" style="enable-background:new 0 0 100 100;" xml:space="preserve">
<style type="text/css">
	.st0{fill:#FFA400;}
	.st1{fill:#FFC300;}
	.st2{fill:#BECD00;}
	.st3{fill:#964B00;}
	.st4{fill:#713A00;}
	.st5{fill:#65B32E;}
	.st6{fill:#008737;}
	.st7{fill:#E62D87;}
	.st8{fill:#FF7BAC;}
	.st9{fill:#FCEE21;}
	.st10{fill:#CCCCCC;}
	.st11{fill:#B3B3B3;}
</style>
<g id="Calque_11">
</g>
<g id="Calque_12">
</g>
<g id="Calque_1">
</g>
<g id="Calque_8">
</g>
<g id="Calque_6">
</g>
<g id="Calque_4">
</g>
<g id="Pictos">
	<g>
		<rect x="34.5" y="79.4" class="st0" width="1.8" height="16.5"/>
		<g>
			<path class="st1" d="M28.7,32.6c0.3,0,0.6-0.3,0.6-0.6V32c-0.1-0.5-0.2-1-0.2-1.5c0-0.4,0.1-0.8,0.2-1.3l0-13.9
				c0-0.3-0.3-0.6-0.6-0.6c-0.3,0-0.6,0.3-0.6,0.6l0,16.7C28.2,32.3,28.4,32.6,28.7,32.6z"/>
			<path class="st1" d="M25.5,32.5c0.3,0,0.6-0.3,0.6-0.6l0-16.6c0-0.3-0.3-0.6-0.6-0.6c-0.3,0-0.6,0.3-0.6,0.6l0,16.6
				C24.9,32.3,25.2,32.5,25.5,32.5z"/>
			<path class="st1" d="M29.4,67.2c-2-0.9-4-1.4-4.8-1.6c0,1,0.1,4,0.2,6.3c0.1,2.7,2.6,4.3,5.2,5.2c2.1,0.7,4.2,1,4.9,1.1
				c0-0.4,0.1-1.4,0.1-2.5c0-1.2,0-2.5-0.2-3.7C34.5,70,31.9,68.3,29.4,67.2z"/>
			<path class="st1" d="M32.6,15.3c0-0.3-0.3-0.6-0.6-0.6c-0.3,0-0.6,0.3-0.6,0.6l0,8.8c0.4-0.8,0.8-1.5,1.1-2.1L32.6,15.3z"/>
			<path class="st1" d="M29.4,56.4c-2-0.9-4-1.4-4.8-1.6c0,1,0.1,4,0.2,6.3c0.1,2.7,2.6,4.3,5.2,5.2c2.1,0.7,4.2,1,4.9,1.1
				c0-0.4,0.1-1.4,0.1-2.5c0-1.2,0-2.5-0.2-3.7C34.5,59.1,31.9,57.4,29.4,56.4z"/>
			<g>
				<path class="st0" d="M38.9,15.3c0-0.3-0.3-0.6-0.6-0.6c-0.3,0-0.6,0.3-0.6,0.6l0,6.7c0.4,0.7,0.8,1.4,1.1,2.1L38.9,15.3z"/>
				<path class="st0" d="M36.2,39.6c-0.1,1.2-0.2,2.6-0.2,3.7c0,1.2,0,2.1,0.1,2.5c0.7-0.1,2.8-0.3,4.9-1.1c2.6-0.9,5.1-2.5,5.2-5.2
					c0.1-2.2,0.2-5.3,0.2-6.3c-0.8,0.2-2.7,0.7-4.8,1.6C38.9,36,36.4,37.7,36.2,39.6z"/>
				<path class="st0" d="M44.8,32.5c0.3,0,0.6-0.3,0.6-0.6l0-16.6c0-0.3-0.3-0.6-0.6-0.6c-0.3,0-0.6,0.3-0.6,0.6l0,16.6
					C44.2,32.3,44.5,32.5,44.8,32.5z"/>
				<path class="st0" d="M41.5,32.6c0.3,0,0.6-0.3,0.6-0.6l0-16.7c0-0.3-0.3-0.6-0.6-0.6c-0.3,0-0.6,0.3-0.6,0.6l0,13.9
					c0.1,0.5,0.2,0.9,0.2,1.3c0,0.5-0.1,1-0.2,1.5V32C40.9,32.4,41.2,32.6,41.5,32.6z"/>
				<path class="st0" d="M36.2,61c-0.1,1.2-0.2,2.6-0.2,3.7c0,1.2,0,2.1,0.1,2.5c0.7-0.1,2.8-0.3,4.9-1.1c2.6-0.9,5.1-2.5,5.2-5.2
					c0.1-2.2,0.2-5.3,0.2-6.3c-0.7,0.2-2.7,0.7-4.8,1.6C38.9,57.4,36.4,59.1,36.2,61z"/>
				<path class="st0" d="M40,30.5c0-2.3-3.5-8.3-4.6-10.1v14.9C38,35.2,40,33.1,40,30.5z"/>
				<path class="st0" d="M36.2,50.3C36.1,51.5,36,52.9,36,54c0,1.2,0,2.1,0.1,2.5c0.7-0.1,2.8-0.3,4.9-1.1c2.6-0.9,5.1-2.5,5.2-5.2
					c0.1-2.2,0.2-5.3,0.2-6.3c-0.8,0.2-2.7,0.7-4.8,1.6C38.9,46.7,36.4,48.4,36.2,50.3z"/>
				<path class="st0" d="M36.2,71.9c-0.1,1.2-0.2,2.6-0.2,3.7c0,1.2,0,2.1,0.1,2.5c0.7-0.1,2.8-0.3,4.9-1.1c2.6-0.9,5.1-2.5,5.2-5.2
					c0.1-2.2,0.2-5.3,0.2-6.3c-0.8,0.2-2.7,0.7-4.8,1.6C38.9,68.3,36.4,70,36.2,71.9z"/>
			</g>
			<path class="st1" d="M29.4,45.7c-2-0.9-4-1.4-4.8-1.6c0,1,0.1,4,0.2,6.3c0.1,2.7,2.6,4.3,5.2,5.2c2.1,0.7,4.2,1,4.9,1.1
				c0-0.4,0.1-1.4,0.1-2.5c0-1.2,0-2.5-0.2-3.7C34.5,48.4,31.9,46.7,29.4,45.7z"/>
			<path class="st1" d="M35.1,19.9c0,0-4.9,7.9-4.9,10.6c0,2.7,2.2,4.9,4.9,4.9c0.1,0,0.2,0,0.3,0V20.4
				C35.2,20.1,35.1,19.9,35.1,19.9z"/>
			<path class="st1" d="M29.4,35c-2-0.9-4-1.4-4.8-1.6c0,1,0.1,4,0.2,6.3c0.1,2.7,2.6,4.3,5.2,5.2c2.1,0.7,4.2,1,4.9,1.1
				c0-0.4,0.1-1.4,0.1-2.5c0-1.2,0-2.5-0.2-3.7C34.5,37.7,32,36,29.4,35z"/>
		</g>
		<g>
			<path class="st1" d="M57.8,22c0.3,0,0.6-0.3,0.6-0.6v-0.1c-0.1-0.5-0.2-1-0.2-1.5c0-0.4,0.1-0.8,0.2-1.3l0-13.9
				c0-0.3-0.3-0.6-0.6-0.6c-0.3,0-0.6,0.3-0.6,0.6l0,16.7C57.3,21.8,57.5,22,57.8,22z"/>
			<path class="st1" d="M54.6,21.9c0.3,0,0.6-0.3,0.6-0.6l0-16.6c0-0.3-0.3-0.6-0.6-0.6c-0.3,0-0.6,0.3-0.6,0.6l0,16.6
				C54,21.7,54.3,21.9,54.6,21.9z"/>
			<path class="st1" d="M58.5,56.7c-2-0.9-4-1.4-4.8-1.6c0,1,0.1,4,0.2,6.3c0.1,2.7,2.6,4.3,5.2,5.2c2.1,0.7,4.2,1,4.9,1.1
				c0-0.4,0.1-1.4,0.1-2.5c0-1.2,0-2.5-0.2-3.7C63.6,59.4,61.1,57.7,58.5,56.7z"/>
			<path class="st1" d="M61.7,4.7c0-0.3-0.3-0.6-0.6-0.6c-0.3,0-0.6,0.3-0.6,0.6l0,8.8c0.4-0.8,0.8-1.5,1.1-2.1L61.7,4.7z"/>
			<path class="st1" d="M58.5,45.8c-2-0.9-4-1.4-4.8-1.6c0,1,0.1,4,0.2,6.3c0.1,2.7,2.6,4.3,5.2,5.2c2.1,0.7,4.2,1,4.9,1.1
				c0-0.4,0.1-1.4,0.1-2.5c0-1.2,0-2.5-0.2-3.7C63.6,48.5,61.1,46.8,58.5,45.8z"/>
			<g>
				<path class="st0" d="M68,4.7c0-0.3-0.3-0.6-0.6-0.6c-0.3,0-0.6,0.3-0.6,0.6l0,6.7c0.4,0.7,0.8,1.4,1.1,2.1L68,4.7z"/>
				<path class="st0" d="M65.3,29c-0.1,1.2-0.2,2.6-0.2,3.7c0,1.2,0,2.1,0.1,2.5c0.7-0.1,2.8-0.3,4.9-1.1c2.6-0.9,5.1-2.5,5.2-5.2
					c0.1-2.2,0.2-5.3,0.2-6.3c-0.8,0.2-2.7,0.7-4.8,1.6C68.1,25.4,65.5,27.1,65.3,29z"/>
				<path class="st0" d="M73.9,21.9c0.3,0,0.6-0.3,0.6-0.6l0-16.6c0-0.3-0.3-0.6-0.6-0.6c-0.3,0-0.6,0.3-0.6,0.6l0,16.6
					C73.3,21.7,73.6,21.9,73.9,21.9z"/>
				<path class="st0" d="M70.6,22c0.3,0,0.6-0.3,0.6-0.6l0-16.7c0-0.3-0.3-0.6-0.6-0.6c-0.3,0-0.6,0.3-0.6,0.6l0,13.9
					c0.1,0.5,0.2,0.9,0.2,1.3c0,0.5-0.1,1-0.2,1.5v0.1C70.1,21.8,70.3,22,70.6,22z"/>
				<path class="st0" d="M65.3,50.4c-0.1,1.2-0.2,2.6-0.2,3.7c0,1.2,0,2.1,0.1,2.5c0.7-0.1,2.8-0.3,4.9-1.1c2.6-0.9,5.1-2.5,5.2-5.2
					c0.1-2.2,0.2-5.3,0.2-6.3c-0.7,0.2-2.7,0.7-4.8,1.6C68.1,46.8,65.5,48.5,65.3,50.4z"/>
				<path class="st0" d="M69.1,19.9c0-2.3-3.5-8.3-4.6-10.1v14.9C67.1,24.6,69.1,22.5,69.1,19.9z"/>
				<path class="st0" d="M65.3,39.7c-0.1,1.2-0.2,2.6-0.2,3.7c0,1.2,0,2.1,0.1,2.5c0.7-0.1,2.8-0.3,4.9-1.1c2.6-0.9,5.1-2.5,5.2-5.2
					c0.1-2.2,0.2-5.3,0.2-6.3c-0.8,0.2-2.7,0.7-4.8,1.6C68.1,36.1,65.5,37.8,65.3,39.7z"/>
				<path class="st0" d="M65.3,61.3c-0.1,1.2-0.2,2.6-0.2,3.7c0,1.2,0,2.1,0.1,2.5c0.7-0.1,2.8-0.3,4.9-1.1c2.6-0.9,5.1-2.5,5.2-5.2
					c0.1-2.2,0.2-5.3,0.2-6.3c-0.8,0.2-2.7,0.7-4.8,1.6C68,57.7,65.5,59.4,65.3,61.3z"/>
			</g>
			<path class="st1" d="M58.5,35.1c-2-0.9-4-1.4-4.8-1.6c0,1,0.1,4,0.2,6.3c0.1,2.7,2.6,4.3,5.2,5.2c2.1,0.7,4.2,1,4.9,1.1
				c0-0.4,0.1-1.4,0.1-2.5c0-1.2,0-2.5-0.2-3.7C63.6,37.8,61.1,36.1,58.5,35.1z"/>
			<path class="st1" d="M64.2,9.3c0,0-4.9,7.9-4.9,10.6c0,2.7,2.2,4.9,4.9,4.9c0.1,0,0.2,0,0.3,0V9.8C64.4,9.5,64.2,9.3,64.2,9.3z"
				/>
			<path class="st1" d="M58.5,24.4c-2-0.9-4-1.4-4.8-1.6c0,1,0.1,4,0.2,6.3c0.1,2.7,2.6,4.3,5.2,5.2c2.1,0.7,4.2,1,4.9,1.1
				c0-0.4,0.1-1.4,0.1-2.5c0-1.2,0-2.5-0.2-3.7C63.6,27.1,61.1,25.4,58.5,24.4z"/>
		</g>
		<rect x="63.7" y="68.8" class="st0" width="1.8" height="27.1"/>
	</g>
</g>
<g id="Palisade">
</g>
<g id="Calque_2">
</g>
<g id="Calque_5">
</g>
</svg>
