<?xml version="1.0" encoding="utf-8"?>
<!-- Generator: Adobe Illustrator 19.2.1, SVG Export Plug-In . SVG Version: 6.00 Build 0)  -->
<svg version="1.1" xmlns="http://www.w3.org/2000/svg" xmlns:xlink="http://www.w3.org/1999/xlink" x="0px" y="0px"
	 viewBox="0 0 100 100" style="enable-background:new 0 0 100 100;" xml:space="preserve">
<style type="text/css">
	.st0{fill:#FFA400;}
	.st1{fill:#FFC300;}
	.st2{fill:#BECD00;}
	.st3{fill:#964B00;}
	.st4{fill:#713A00;}
	.st5{fill:#65B32E;}
	.st6{fill:#008737;}
	.st7{fill:#E62D87;}
	.st8{fill:#FF7BAC;}
	.st9{fill:#FCEE21;}
	.st10{fill:#CCCCCC;}
	.st11{fill:#B3B3B3;}
</style>
<g id="Calque_11">
</g>
<g id="Calque_12">
</g>
<g id="Calque_1">
</g>
<g id="Calque_8">
</g>
<g id="Calque_6">
</g>
<g id="Calque_4">
</g>
<g id="Pictos">
	<g>
		<path class="st2" d="M35.6,53c0,13.8,0,27.6,0,41.4c0,1.9,2.9,1.9,2.9,0c0-13.8,0-27.6,0-41.4C38.4,51.2,35.6,51.2,35.6,53
			L35.6,53z"/>
		<path class="st2" d="M18.2,55c0,13.1,0,26.3,0,39.4c0,1.9,2.9,1.9,2.9,0c0-13.1,0-26.3,0-39.4C21.1,53.2,18.2,53.2,18.2,55
			L18.2,55z"/>
		<path class="st2" d="M78.9,57.3c0,12.4,0,24.8,0,37.2c0,1.9,2.9,1.9,2.9,0c0-12.4,0-24.8,0-37.2C81.8,55.4,78.9,55.4,78.9,57.3
			L78.9,57.3z"/>
		<path class="st2" d="M55.8,94.5c0-9.5,0-19.1,0-28.6c0-1.9-2.9-1.9-2.9,0c0,9.5,0,19.1,0,28.6C52.9,96.3,55.8,96.3,55.8,94.5
			L55.8,94.5z"/>
		<path class="st2" d="M64.4,94.5c0-15.7,0-31.3,0-47c0-1.9-2.9-1.9-2.9,0c0,15.7,0,31.3,0,47C61.6,96.3,64.4,96.3,64.4,94.5
			L64.4,94.5z"/>
		<path class="st2" d="M29.8,94.5c0-25,0-50.1,0-75.1c0-4.6,0-9.2,0-13.8c0-1.9-2.9-1.9-2.9,0c0,24.9,0,49.7,0,74.6
			c0,4.8,0,9.5,0,14.3C26.9,96.3,29.8,96.3,29.8,94.5L29.8,94.5z"/>
		<path class="st3" d="M23.1,13v18.3c0,3.9,2.4,7,5.3,7V6C25.4,6,23.1,9.1,23.1,13z"/>
		<path class="st4" d="M28.3,6C28.3,6,28.3,6,28.3,6l0,32.4c0,0,0,0,0,0c2.9,0,5.3-3.1,5.3-7V13C33.6,9.1,31.3,6,28.3,6z"/>
		<path class="st2" d="M47.1,94.5c0-22.7,0-45.3,0-68c0-1.9-2.9-1.9-2.9,0c0,22.7,0,45.3,0,68C44.2,96.3,47.1,96.3,47.1,94.5
			L47.1,94.5z"/>
		<path class="st3" d="M40.4,33.8v18.3c0,3.9,2.4,7,5.3,7V26.8C42.8,26.8,40.4,30,40.4,33.8z"/>
		<path class="st4" d="M45.7,26.8C45.7,26.8,45.7,26.8,45.7,26.8l0,32.4c0,0,0,0,0,0c2.9,0,5.3-3.1,5.3-7V33.8
			C50.9,30,48.6,26.8,45.7,26.8z"/>
		<path class="st2" d="M73.1,94.5c0-27.6,0-55.2,0-82.8c0-1.9-2.9-1.9-2.9,0c0,27.6,0,55.2,0,82.8C70.2,96.3,73.1,96.3,73.1,94.5
			L73.1,94.5z"/>
		<path class="st3" d="M66.4,19.1v18.3c0,3.9,2.4,7,5.3,7V12.1C68.7,12.1,66.4,15.2,66.4,19.1z"/>
		<path class="st4" d="M71.7,12.1v32.4c2.9,0,5.3-3.1,5.3-7V19.1C76.9,15.2,74.6,12.1,71.7,12.1z"/>
	</g>
</g>
<g id="Palisade">
</g>
<g id="Calque_2">
</g>
<g id="Calque_5">
</g>
</svg>
