<?xml version="1.0" encoding="utf-8"?>
<!-- Generator: Adobe Illustrator 16.0.0, SVG Export Plug-In . SVG Version: 6.00 Build 0)  -->
<!DOCTYPE svg PUBLIC "-//W3C//DTD SVG 1.1//EN" "http://www.w3.org/Graphics/SVG/1.1/DTD/svg11.dtd">
<svg version="1.1" id="Calque_1" xmlns="http://www.w3.org/2000/svg" xmlns:xlink="http://www.w3.org/1999/xlink" x="0px" y="0px"
	 width="100px" height="100px" viewBox="0 0 100 100" enable-background="new 0 0 100 100" xml:space="preserve">
<g>
	<path fill="#FFC300" d="M26.998,71.277c0,6.063-4.919,10.979-10.979,10.979c-6.064,0-10.979-4.916-10.979-10.979
		c0-6.063,4.914-10.98,10.979-10.98C22.079,60.297,26.998,65.215,26.998,71.277z"/>
	<path fill="#FFC300" d="M75.795,71.277c0,6.063-4.919,10.979-10.979,10.979c-6.064,0-10.979-4.916-10.979-10.979
		c0-6.063,4.914-10.98,10.979-10.98C70.876,60.297,75.795,65.215,75.795,71.277z"/>
	<path fill="#FFC300" d="M94.296,24.97c2.071,5.699-0.865,11.999-6.564,14.072c-5.695,2.072-11.995-0.863-14.07-6.561
		s0.865-12,6.561-14.072C85.921,16.334,92.222,19.271,94.296,24.97z"/>
	<path fill="none" stroke="#BEE3F2" stroke-width="10.7523" stroke-miterlimit="10" d="M17.026,78.916"/>
	<path fill="none" stroke="#BEE3F2" stroke-width="10.7523" stroke-miterlimit="10" d="M72.653,78.916"/>
	<polyline opacity="0.6" fill="none" stroke="#FFC300" stroke-width="10.7523" stroke-miterlimit="10" points="19.761,68.395 
		40.337,48.708 60.909,68.395 	"/>
	
		<line opacity="0.6" fill="none" stroke="#FFC300" stroke-width="10.7523" stroke-miterlimit="10" x1="61.564" y1="78.427" x2="83.296" y2="31.82"/>
</g>
</svg>
