<?xml version="1.0" encoding="utf-8"?>
<!-- Generator: Adobe Illustrator 16.0.4, SVG Export Plug-In . SVG Version: 6.00 Build 0)  -->
<!DOCTYPE svg PUBLIC "-//W3C//DTD SVG 1.1//EN" "http://www.w3.org/Graphics/SVG/1.1/DTD/svg11.dtd">
<svg version="1.1" id="Layer_1" xmlns="http://www.w3.org/2000/svg" xmlns:xlink="http://www.w3.org/1999/xlink" x="0px" y="0px"
	 width="100px" height="100px" viewBox="0 0 100 100" enable-background="new 0 0 100 100" xml:space="preserve">
<g>
	<g>
		<ellipse fill="#603813" cx="50" cy="90.632" rx="3.669" ry="0.584"/>
		<ellipse fill="#42210B" cx="50" cy="90.632" rx="2.682" ry="0.428"/>
	</g>
	<path fill="#603813" d="M49.372,90.583c0-9.25-0.25-20.25-2.625-22.125h6.75c-2.375,1.875-2.625,12.875-2.625,22.125H49.372z"/>
	<g>
		<circle fill="#009245" cx="49.497" cy="42.958" r="26.875"/>
		<path fill="#006837" d="M60.409,53.63c3.464,0.964,5.489,4.577,5.489,4.577s-3.602,2.046-7.064,1.078
			c-3.475-0.966-5.488-4.575-5.488-4.575S56.936,52.663,60.409,53.63z"/>
		<path fill="#006837" d="M67.159,36.255c3.464,0.964,5.489,4.577,5.489,4.577s-3.602,2.046-7.064,1.078
			c-3.475-0.966-5.488-4.575-5.488-4.575S63.686,35.288,67.159,36.255z"/>
		<path fill="#006837" d="M53.132,21.609c3.184-1.672,7.135-0.429,7.135-0.429s-1.221,3.958-4.405,5.627
			c-3.192,1.678-7.133,0.43-7.133,0.43S49.94,23.286,53.132,21.609z"/>
		<path fill="#006837" d="M53.382,40.608c3.184-1.672,7.135-0.429,7.135-0.429s-1.221,3.958-4.405,5.627
			c-3.192,1.678-7.133,0.43-7.133,0.43S50.19,42.285,53.382,40.608z"/>
		<path fill="#006837" d="M32.601,32.284c3.58-0.332,6.759,2.324,6.759,2.324s-2.638,3.194-6.218,3.522
			c-3.591,0.334-6.758-2.322-6.758-2.322S29.011,32.617,32.601,32.284z"/>
		<path fill="#006837" d="M41.46,54.086c3.363-1.271,7.133,0.446,7.133,0.446s-1.695,3.779-5.06,5.046
			c-3.374,1.275-7.132-0.445-7.132-0.445S38.087,55.359,41.46,54.086z"/>
		<path fill="#39B54A" d="M34.415,59.902c-1.104,2.299-3.881,3.264-3.881,3.264s-0.979-2.771,0.126-5.069
			c1.108-2.306,3.88-3.264,3.88-3.264S35.524,57.597,34.415,59.902z"/>
		<path fill="#39B54A" d="M48.54,67.777c-1.104,2.299-3.881,3.264-3.881,3.264s-0.979-2.771,0.126-5.069
			c1.108-2.306,3.88-3.264,3.88-3.264S49.649,65.472,48.54,67.777z"/>
		<path fill="#39B54A" d="M63.337,52.539c1.585,1.999,1.239,4.917,1.239,4.917s-2.92-0.329-4.504-2.328
			c-1.59-2.005-1.24-4.916-1.24-4.916S61.748,50.534,63.337,52.539z"/>
		<path fill="#39B54A" d="M72.249,36.634c2.488-0.559,4.967,1.021,4.967,1.021s-1.565,2.487-4.055,3.045
			c-2.496,0.561-4.966-1.02-4.966-1.02S69.752,37.194,72.249,36.634z"/>
		<path fill="#39B54A" d="M55.374,29.884c2.488-0.559,4.967,1.021,4.967,1.021s-1.565,2.487-4.055,3.045
			c-2.496,0.561-4.966-1.02-4.966-1.02S52.877,30.444,55.374,29.884z"/>
		<path fill="#39B54A" d="M41.124,43.009c2.488-0.559,4.967,1.021,4.967,1.021s-1.565,2.487-4.055,3.045
			c-2.496,0.561-4.966-1.02-4.966-1.02S38.627,43.569,41.124,43.009z"/>
		<path fill="#39B54A" d="M35.749,25.509c2.488-0.559,4.967,1.021,4.967,1.021s-1.565,2.487-4.055,3.045
			c-2.496,0.561-4.966-1.02-4.966-1.02S33.252,26.069,35.749,25.509z"/>
		<path fill="#39B54A" d="M38.221,19.531c2.41,0.833,3.688,3.479,3.688,3.479s-2.639,1.292-5.05,0.459
			c-2.418-0.835-3.688-3.478-3.688-3.478S35.802,18.695,38.221,19.531z"/>
		<path fill="#39B54A" d="M24.396,40.735c2.059-1.505,4.961-1.045,4.961-1.045s-0.443,2.905-2.503,4.41
			c-2.065,1.51-4.961,1.046-4.961,1.046S22.329,42.245,24.396,40.735z"/>
		<path fill="#39B54A" d="M57.1,64.41c2.458,0.684,3.895,3.247,3.895,3.247s-2.556,1.452-5.012,0.766
			c-2.466-0.686-3.895-3.246-3.895-3.246S54.635,63.724,57.1,64.41z"/>
		<path fill="#39B54A" d="M72.183,50.91c2.458,0.684,3.895,3.247,3.895,3.247s-2.556,1.452-5.012,0.767
			c-2.466-0.687-3.895-3.247-3.895-3.247S69.718,50.223,72.183,50.91z"/>
		<path fill="#39B54A" d="M61.433,40.16c2.458,0.684,3.895,3.247,3.895,3.247s-2.556,1.452-5.012,0.766
			c-2.466-0.686-3.895-3.247-3.895-3.247S58.968,39.473,61.433,40.16z"/>
		<path fill="#8CC63F" d="M66.699,46.362c1.87,0.52,2.962,2.47,2.962,2.47s-1.943,1.104-3.812,0.583
			c-1.875-0.521-2.962-2.469-2.962-2.469S64.825,45.84,66.699,46.362z"/>
		<path fill="#8CC63F" d="M59.449,25.237c1.87,0.52,2.962,2.47,2.962,2.47s-1.943,1.104-3.812,0.583
			c-1.875-0.521-2.962-2.469-2.962-2.469S57.575,24.715,59.449,25.237z"/>
		<path fill="#8CC63F" d="M27.998,56.207c-1.922,0.274-3.704-1.074-3.704-1.074s1.337-1.791,3.258-2.063
			c1.926-0.273,3.703,1.075,3.703,1.075S29.923,55.934,27.998,56.207z"/>
		<path fill="#8CC63F" d="M36.096,66.151c-1.922,0.274-3.704-1.074-3.704-1.074s1.337-1.791,3.258-2.063
			c1.926-0.273,3.703,1.075,3.703,1.075S38.021,65.878,36.096,66.151z"/>
		<path fill="#8CC63F" d="M44.623,50.457c-1.922,0.274-3.704-1.074-3.704-1.074s1.337-1.791,3.258-2.063
			c1.926-0.273,3.703,1.075,3.703,1.075S46.548,50.184,44.623,50.457z"/>
		<path fill="#8CC63F" d="M55.998,47.832c-1.922,0.274-3.704-1.074-3.704-1.074s1.337-1.791,3.258-2.063
			c1.926-0.273,3.703,1.075,3.703,1.075S57.923,47.559,55.998,47.832z"/>
		<path fill="#8CC63F" d="M62.326,61.143c-1.759-0.822-2.512-2.927-2.512-2.927s2.099-0.767,3.855,0.057
			c1.762,0.826,2.511,2.928,2.511,2.928S64.086,61.968,62.326,61.143z"/>
		<path fill="#8CC63F" d="M43.074,64.31c-1.656,1.014-3.827,0.481-3.827,0.481s0.519-2.174,2.174-3.185
			c1.661-1.015,3.827-0.48,3.827-0.48S44.733,63.297,43.074,64.31z"/>
		<path fill="#8CC63F" d="M44.824,68.685c-1.656,1.014-3.827,0.481-3.827,0.481s0.519-2.174,2.174-3.185
			c1.661-1.015,3.827-0.48,3.827-0.48S46.483,67.672,44.824,68.685z"/>
		<path fill="#8CC63F" d="M52.699,37.435c-1.656,1.014-3.827,0.481-3.827,0.481s0.519-2.174,2.174-3.185
			c1.661-1.015,3.827-0.48,3.827-0.48S54.358,36.422,52.699,37.435z"/>
		<path fill="#8CC63F" d="M46.949,20.935c-1.656,1.014-3.827,0.481-3.827,0.481s0.519-2.174,2.174-3.185
			c1.661-1.015,3.827-0.48,3.827-0.48S48.608,19.922,46.949,20.935z"/>
		<path fill="#8CC63F" d="M70.199,28.185c-1.656,1.014-3.827,0.481-3.827,0.481s0.519-2.174,2.174-3.185
			c1.661-1.015,3.827-0.48,3.827-0.48S71.858,27.172,70.199,28.185z"/>
		<path fill="#8CC63F" d="M31.922,49.853c-1.862-0.551-2.921-2.519-2.921-2.519s1.961-1.071,3.82-0.519
			c1.866,0.554,2.921,2.52,2.921,2.52S33.785,50.406,31.922,49.853z"/>
		<path fill="#8CC63F" d="M45.628,28.339c0.604,1.846-0.414,3.835-0.414,3.835s-1.996-1.005-2.598-2.849
			c-0.604-1.85,0.415-3.835,0.415-3.835S45.024,26.491,45.628,28.339z"/>
		<path fill="#8CC63F" d="M28.699,27.487c1.87,0.52,2.962,2.47,2.962,2.47s-1.943,1.104-3.812,0.583
			c-1.875-0.521-2.962-2.469-2.962-2.469S26.825,26.965,28.699,27.487z"/>
		<path fill="#8CC63F" d="M30.922,35.307c1.87,0.52,2.962,2.47,2.962,2.47s-1.943,1.104-3.812,0.583
			c-1.875-0.521-2.962-2.469-2.962-2.469S29.048,34.785,30.922,35.307z"/>
		<path fill="#8CC63F" d="M65.996,34.26c1.79-0.75,3.854,0.105,3.854,0.105s-0.842,2.07-2.632,2.818
			c-1.795,0.751-3.854-0.104-3.854-0.104S64.201,35.011,65.996,34.26z"/>
		<path fill="#39B54A" d="M38.684,39.067c-2.327-1.043-3.365-3.792-3.365-3.792s2.743-1.053,5.07-0.009
			c2.335,1.046,3.366,3.792,3.366,3.792S41.019,40.115,38.684,39.067z"/>
		<path fill="#39B54A" d="M58.103,18.989c1.851-1.754,4.788-1.667,4.788-1.667s-0.071,2.938-1.923,4.691
			c-1.857,1.76-4.788,1.668-4.788,1.668S56.244,20.749,58.103,18.989z"/>
		<path fill="#39B54A" d="M72.853,44.239c1.851-1.754,4.788-1.667,4.788-1.667s-0.071,2.938-1.923,4.691
			c-1.857,1.76-4.788,1.668-4.788,1.668S70.994,45.999,72.853,44.239z"/>
		<path fill="#8CC63F" d="M74.824,46.237c1.87,0.52,2.962,2.47,2.962,2.47s-1.943,1.104-3.812,0.583
			c-1.875-0.521-2.962-2.469-2.962-2.469S72.95,45.715,74.824,46.237z"/>
	</g>
	<ellipse fill="#999999" cx="63.416" cy="90.459" rx="0.708" ry="0.292"/>
	<ellipse fill="#B3B3B3" cx="68.791" cy="90.563" rx="0.708" ry="0.438"/>
	<ellipse fill="#808080" cx="40.04" cy="90.751" rx="1.328" ry="0.82"/>
	<ellipse fill="#999999" cx="62.583" cy="92.056" rx="0.5" ry="0.309"/>
	<ellipse fill="#999999" cx="45.04" cy="91.835" rx="0.5" ry="0.309"/>
	<ellipse fill="#999999" cx="24.207" cy="90.418" rx="0.5" ry="0.309"/>
	<ellipse fill="#999999" cx="42.458" cy="90.834" rx="0.5" ry="0.309"/>
	<ellipse fill="#999999" cx="57.208" cy="92.334" rx="0.708" ry="0.292"/>
	<ellipse fill="#999999" cx="34.79" cy="91.334" rx="0.708" ry="0.292"/>
</g>
</svg>
