<?xml version="1.0" encoding="utf-8"?>
<!-- Generator: Adobe Illustrator 16.0.4, SVG Export Plug-In . SVG Version: 6.00 Build 0)  -->
<!DOCTYPE svg PUBLIC "-//W3C//DTD SVG 1.1//EN" "http://www.w3.org/Graphics/SVG/1.1/DTD/svg11.dtd">
<svg version="1.1" id="Layer_1" xmlns="http://www.w3.org/2000/svg" xmlns:xlink="http://www.w3.org/1999/xlink" x="0px" y="0px"
	 width="100px" height="100px" viewBox="0 0 100 100" enable-background="new 0 0 100 100" xml:space="preserve">
<g>
	<g>
		<polygon fill="#39B54A" points="89.324,89.38 90.821,83.659 89.314,85.26 89.726,79.345 87.629,84 87.001,81.273 84.276,85.474 
			82.206,80.535 81.058,85.474 77.711,82.21 77.329,85.191 73.584,82.426 76.843,89.38 		"/>
		<polygon fill="#D9E021" points="76.843,89.38 89.324,89.38 90.183,84.979 88.138,88.083 89.289,81.105 86.889,88.083 
			86.735,82.298 84.051,87.629 82.267,81.786 81.668,87.857 78.263,83.656 78.717,88.651 74.605,83.744 		"/>
	</g>
	<g>
		<polygon fill="#39B54A" points="69.028,88.005 70.152,83.709 69.021,84.911 69.329,80.47 67.755,83.965 67.283,81.918 
			65.237,85.071 63.684,81.363 62.82,85.071 60.308,82.621 60.021,84.859 57.209,82.783 59.656,88.005 		"/>
		<polygon fill="#D9E021" points="59.656,88.005 69.028,88.005 69.673,84.7 68.137,87.031 69.002,81.792 67.199,87.031 
			67.084,82.688 65.068,86.69 63.729,82.303 63.279,86.861 60.722,83.707 61.063,87.458 57.976,83.773 		"/>
	</g>
	<g>
		<polygon fill="#39B54A" points="47.361,88.672 48.485,84.376 47.354,85.578 47.662,81.137 46.088,84.632 45.616,82.585 
			43.57,85.738 42.017,82.03 41.153,85.738 38.641,83.288 38.354,85.526 35.542,83.45 37.989,88.672 		"/>
		<polygon fill="#D9E021" points="37.989,88.672 47.361,88.672 48.006,85.367 46.47,87.698 47.335,82.459 45.532,87.698 
			45.417,83.354 43.401,87.357 42.062,82.97 41.612,87.528 39.055,84.374 39.396,88.125 36.309,84.44 		"/>
	</g>
	<g>
		<polygon fill="#39B54A" points="39.949,87.88 41.446,82.159 39.939,83.76 40.351,77.845 38.254,82.5 37.626,79.773 34.901,83.974 
			32.831,79.035 31.683,83.974 28.336,80.71 27.954,83.691 24.209,80.926 27.468,87.88 		"/>
		<polygon fill="#D9E021" points="27.468,87.88 39.949,87.88 40.808,83.479 38.763,86.583 39.914,79.605 37.514,86.583 
			37.36,80.798 34.676,86.129 32.892,80.286 32.293,86.357 28.888,82.156 29.342,87.151 25.23,82.244 		"/>
	</g>
	<g>
		<polygon fill="#39B54A" points="16.328,89.38 17.321,85.583 16.321,86.646 16.594,82.72 15.202,85.81 14.786,84 12.978,86.787 
			11.604,83.51 10.842,86.787 8.62,84.621 8.367,86.6 5.881,84.765 8.044,89.38 		"/>
		<polygon fill="#D9E021" points="8.044,89.38 16.328,89.38 16.897,86.459 15.54,88.52 16.305,83.889 14.711,88.52 14.609,84.68 
			12.828,88.218 11.644,84.34 11.246,88.369 8.986,85.581 9.288,88.896 6.56,85.64 		"/>
	</g>
	<rect x="37.048" y="70.498" fill="#E6E6E6" width="48.296" height="10.664"/>
	<polygon fill="#E6E6E6" points="85.344,34.181 37.048,34.181 37.048,24.459 61.545,16.619 85.344,24.459 	"/>
	<polygon fill="#808080" stroke="#808080" stroke-width="0.9409" stroke-miterlimit="10" points="61.196,17.874 29.262,27.162 
		61.196,14.837 93.13,27.162 	"/>
	<rect x="37.048" y="34.181" fill="#F2F2F2" width="48.296" height="10.663"/>
	<rect x="37.048" y="44.629" fill="#E6E6E6" width="48.296" height="10.664"/>
	<rect x="37.048" y="55.294" fill="#F2F2F2" width="48.296" height="10.663"/>
	<polygon fill="#999999" points="88.012,71.034 34.381,71.034 37.048,65.705 85.344,65.705 	"/>
	<polygon fill="#808080" points="59.5,29.672 57.804,26.734 59.5,23.795 62.892,23.795 64.588,26.734 62.892,29.672 	"/>
	<polygon fill="#B3B3B3" points="85.344,81.162 85.344,90.169 81.146,90.169 77.539,81.162 	"/>
	<polygon fill="#B3B3B3" points="37.048,81.162 37.048,90.169 41.244,90.169 44.852,81.162 	"/>
	<path fill="#666666" d="M82.461,62.229c0,0.772-0.627,1.4-1.399,1.4H41.33c-0.772,0-1.398-0.628-1.398-1.4l0,0
		c0-0.773,0.626-1.4,1.398-1.4h39.731C81.834,60.829,82.461,61.456,82.461,62.229L82.461,62.229z"/>
	
		<line fill="none" stroke="#808080" stroke-width="0.9409" stroke-miterlimit="10" x1="37.048" y1="34.181" x2="85.344" y2="34.181"/>
	
		<line fill="none" stroke="#808080" stroke-width="0.9409" stroke-miterlimit="10" x1="37.048" y1="55.294" x2="85.344" y2="55.294"/>
	
		<line fill="none" stroke="#808080" stroke-width="0.9409" stroke-miterlimit="10" x1="37.048" y1="44.629" x2="85.344" y2="44.629"/>
	<g>
		<path fill="#F7931E" d="M31.355,86.979c0.061,3.207-3.542,5.871-8.046,5.956c-4.502,0.083-8.2-2.444-8.26-5.652
			c-0.059-3.21,3.542-5.878,8.044-5.962C27.598,81.235,31.296,83.769,31.355,86.979z"/>
		<path fill="#FBD700" d="M32.827,85.689c0.058,3.015-4.208,5.535-9.524,5.634c-5.314,0.099-9.67-2.261-9.726-5.276
			c-0.056-3.017,4.208-5.543,9.522-5.642C28.417,80.307,32.771,82.672,32.827,85.689z"/>
		<path fill="#F7931E" d="M33.26,84.815c0,2.435-4.503,4.405-10.058,4.405c-5.554,0-10.057-1.971-10.057-4.405
			c0-2.437,4.503-4.411,10.057-4.411C28.757,80.404,33.26,82.379,33.26,84.815z"/>
		<ellipse fill="#FBD700" cx="23.203" cy="83.657" rx="10.337" ry="3.249"/>
		
			<ellipse transform="matrix(0.9999 0.014 -0.014 0.9999 1.1549 -0.3177)" fill="#F7931E" cx="23.2" cy="82.069" rx="10.048" ry="2.877"/>
		<path fill="#FBD700" d="M32.616,80.404c0.008,1.397-4.199,2.546-9.4,2.569c-5.195,0.023-9.415-1.088-9.423-2.484
			c-0.004-1.399,4.204-2.55,9.399-2.573C28.393,77.891,32.61,79.004,32.616,80.404z"/>
		<path fill="#F7931E" d="M31.773,78.494c0.008,1.36-3.823,2.478-8.56,2.498c-4.731,0.021-8.575-1.06-8.581-2.42
			c-0.006-1.361,3.826-2.48,8.558-2.502C27.927,76.048,31.769,77.133,31.773,78.494z"/>
		<path fill="#FBD700" d="M30.21,76.826c0.006,1.11-3.127,2.023-6.999,2.041c-3.869,0.018-7.01-0.867-7.016-1.978
			c-0.005-1.112,3.13-2.027,6.998-2.046C27.064,74.823,30.205,75.712,30.21,76.826z"/>
		<path fill="#333333" d="M29.112,76.423c0.007,0.735-2.638,1.339-5.904,1.354c-3.262,0.015-5.911-0.566-5.916-1.301
			c-0.003-0.734,2.642-1.342,5.905-1.357C26.462,75.104,29.11,75.688,29.112,76.423z"/>
	</g>
	<path d="M52.428,65.491c0.028,0.274-0.338,0.537-0.82,0.589c-0.48,0.049-0.895-0.128-0.924-0.401
		c-0.028-0.273,0.337-0.537,0.819-0.588C51.984,65.041,52.398,65.219,52.428,65.491z"/>
	<ellipse transform="matrix(0.9999 -0.0156 0.0156 0.9999 -0.9728 0.5096)" cx="32.15" cy="62.557" rx="0.719" ry="0.408"/>
	<ellipse transform="matrix(0.9999 -0.0149 0.0149 0.9999 -0.9802 0.4483)" cx="29.53" cy="65.856" rx="0.719" ry="0.407"/>
	<ellipse transform="matrix(0.9999 -0.0149 0.0149 0.9999 -0.9421 0.6882)" cx="45.613" cy="63.425" rx="0.719" ry="0.407"/>
	<path d="M20.938,72.505c0.029,0.273-0.337,0.537-0.819,0.589c-0.481,0.049-0.896-0.129-0.924-0.401
		c-0.028-0.274,0.337-0.537,0.818-0.589C20.495,72.055,20.908,72.232,20.938,72.505z"/>
	<ellipse transform="matrix(0.8161 0.5779 -0.5779 0.8161 45.3581 -8.528)" cx="36.08" cy="67.013" rx="0.877" ry="0.498"/>
	<ellipse transform="matrix(0.8159 0.5781 -0.5781 0.8159 41.9535 -2.0552)" cx="24.205" cy="64.862" rx="0.877" ry="0.497"/>
	<ellipse transform="matrix(0.8161 0.5779 -0.5779 0.8161 40.0083 -1.0662)" cx="21.68" cy="62.337" rx="0.877" ry="0.498"/>
	<path d="M24.164,72.623c0.028,0.274-0.338,0.537-0.82,0.589c-0.48,0.049-0.895-0.129-0.923-0.401
		c-0.029-0.274,0.336-0.537,0.818-0.589C23.722,72.173,24.135,72.351,24.164,72.623z"/>
	<path d="M26.532,73.679c0.028,0.273-0.338,0.537-0.82,0.588c-0.48,0.05-0.895-0.128-0.923-0.4
		c-0.029-0.274,0.336-0.537,0.818-0.589C26.089,73.229,26.502,73.405,26.532,73.679z"/>
	<path d="M21.709,66.451c0.029,0.274-0.337,0.537-0.819,0.589c-0.481,0.049-0.896-0.128-0.924-0.401s0.337-0.537,0.818-0.588
		C21.267,66.001,21.68,66.179,21.709,66.451z"/>
	<path d="M24.936,68.906c0.028,0.273-0.338,0.537-0.82,0.588c-0.48,0.05-0.895-0.128-0.923-0.4
		c-0.029-0.274,0.336-0.537,0.818-0.589C24.492,68.456,24.906,68.633,24.936,68.906z"/>
	<path d="M22.341,71.642c0.028,0.273-0.338,0.537-0.82,0.588c-0.48,0.05-0.895-0.128-0.924-0.4
		c-0.028-0.274,0.337-0.537,0.819-0.589C21.897,71.191,22.311,71.368,22.341,71.642z"/>
	<ellipse transform="matrix(0.9998 -0.0223 0.0223 0.9998 -1.5753 0.6009)" cx="26.168" cy="70.963" rx="0.876" ry="0.498"/>
	<path d="M22.556,70.409c-0.18,0.21-0.622,0.124-0.991-0.191c-0.366-0.315-0.521-0.738-0.342-0.946
		c0.18-0.21,0.621-0.124,0.989,0.19C22.579,69.779,22.734,70.201,22.556,70.409z"/>
	<g>
		<ellipse transform="matrix(0.8159 0.5781 -0.5781 0.8159 43.1146 -1.5637)" cx="24.013" cy="66.93" rx="0.552" ry="0.313"/>
		<ellipse transform="matrix(0.8162 0.5777 -0.5777 0.8162 41.8682 -0.9465)" cx="22.422" cy="65.339" rx="0.553" ry="0.313"/>
		<ellipse transform="matrix(0.9943 -0.107 0.107 0.9943 -7.5588 2.9216)" cx="23.438" cy="71.879" rx="0.552" ry="0.313"/>
		<ellipse transform="matrix(0.9944 -0.106 0.106 0.9944 -7.5472 3.0504)" cx="24.931" cy="72.544" rx="0.553" ry="0.313"/>
		<ellipse transform="matrix(0.9943 -0.1068 0.1068 0.9943 -7.139 2.7282)" cx="21.892" cy="67.99" rx="0.553" ry="0.315"/>
		<ellipse transform="matrix(0.9944 -0.1061 0.1061 0.9944 -7.2405 2.9298)" cx="23.924" cy="69.537" rx="0.552" ry="0.313"/>
		<ellipse transform="matrix(0.9943 -0.1069 0.1069 0.9943 -7.4927 2.7923)" cx="22.29" cy="71.26" rx="0.552" ry="0.314"/>
		<ellipse transform="matrix(0.9998 -0.0221 0.0221 0.9998 -1.5606 0.5763)" cx="25.25" cy="70.774" rx="0.551" ry="0.313"/>
		<ellipse transform="matrix(0.7603 0.6496 -0.6496 0.7603 50.9241 2.1463)" cx="22.554" cy="70.066" rx="0.552" ry="0.313"/>
	</g>
	<g>
		<ellipse transform="matrix(-0.8155 0.5787 -0.5787 -0.8155 77.097 114.3332)" cx="20.326" cy="69.455" rx="0.553" ry="0.313"/>
		<ellipse transform="matrix(-0.8162 0.5777 -0.5777 -0.8162 79.0126 110.5936)" cx="21.917" cy="67.863" rx="0.553" ry="0.314"/>
		<ellipse transform="matrix(-0.9943 -0.107 0.107 -0.9943 33.7171 150.6172)" cx="20.9" cy="74.404" rx="0.552" ry="0.313"/>
		<ellipse transform="matrix(-0.9944 -0.1061 0.1061 -0.9944 30.7458 151.7719)" cx="19.409" cy="75.068" rx="0.552" ry="0.313"/>
		<ellipse transform="matrix(-0.9943 -0.1068 0.1068 -0.9943 37.2319 143.025)" cx="22.447" cy="70.515" rx="0.553" ry="0.314"/>
		<ellipse transform="matrix(-0.9944 -0.1061 0.1061 -0.9944 33.0707 145.8818)" cx="20.415" cy="72.062" rx="0.552" ry="0.313"/>
		<ellipse transform="matrix(-0.9943 -0.1068 0.1068 -0.9943 36.0899 149.5029)" cx="22.05" cy="73.785" rx="0.553" ry="0.314"/>
		<ellipse transform="matrix(-0.9997 -0.023 0.023 -0.9997 36.4866 147.0174)" cx="19.089" cy="73.299" rx="0.552" ry="0.313"/>
		<ellipse transform="matrix(-0.7606 0.6492 -0.6492 -0.7606 85.4812 113.6645)" cx="21.785" cy="72.592" rx="0.552" ry="0.312"/>
	</g>
	<ellipse transform="matrix(0.9943 -0.1064 0.1064 0.9943 -6.3155 7.3195)" cx="65.442" cy="62.85" rx="0.877" ry="0.497"/>
	<ellipse transform="matrix(0.9913 0.132 -0.132 0.9913 9.4446 -7.6772)" cx="62.637" cy="67.409" rx="0.877" ry="0.498"/>
	<path d="M86.604,62.1c-0.037,0.273-0.456,0.442-0.937,0.378c-0.479-0.066-0.839-0.337-0.803-0.608
		c0.037-0.273,0.455-0.442,0.935-0.377C86.28,61.558,86.64,61.828,86.604,62.1z"/>
	<path d="M71.924,65.537c-0.038,0.273-0.456,0.442-0.937,0.379c-0.479-0.067-0.839-0.338-0.803-0.609
		c0.037-0.273,0.454-0.442,0.935-0.377C71.599,64.995,71.959,65.266,71.924,65.537z"/>
	<path d="M55.008,70.08c-0.266,0.07-0.583-0.252-0.707-0.721c-0.121-0.468-0.01-0.903,0.256-0.975
		c0.267-0.07,0.582,0.252,0.706,0.72C55.385,69.573,55.272,70.009,55.008,70.08z"/>
	<path d="M82.126,67.836c-0.267,0.069-0.583-0.253-0.708-0.721c-0.121-0.468-0.009-0.903,0.256-0.975
		c0.267-0.07,0.582,0.252,0.706,0.72C82.503,67.329,82.39,67.765,82.126,67.836z"/>
</g>
</svg>
