<?xml version="1.0" encoding="utf-8"?>
<!-- Generator: Adobe Illustrator 16.0.4, SVG Export Plug-In . SVG Version: 6.00 Build 0)  -->
<!DOCTYPE svg PUBLIC "-//W3C//DTD SVG 1.1//EN" "http://www.w3.org/Graphics/SVG/1.1/DTD/svg11.dtd">
<svg version="1.1" id="Layer_1" xmlns="http://www.w3.org/2000/svg" xmlns:xlink="http://www.w3.org/1999/xlink" x="0px" y="0px"
	 width="100px" height="110px" viewBox="0 0 100 110" enable-background="new 0 0 100 110" xml:space="preserve">
<g>
	<g>
		<rect x="38.201" y="59.441" fill="#E6E6E6" width="24.111" height="35.29"/>
		<rect x="38.201" y="59.441" fill="#E6E6E6" width="24.111" height="1.812"/>
		<g>
			
				<line fill="none" stroke="#F2F2F2" stroke-width="1.3821" stroke-linecap="round" stroke-miterlimit="10" x1="60.121" y1="64.374" x2="60.121" y2="92.43"/>
			
				<line fill="none" stroke="#F2F2F2" stroke-width="1.3821" stroke-linecap="round" stroke-miterlimit="10" x1="56.834" y1="64.374" x2="56.834" y2="92.43"/>
			
				<line fill="none" stroke="#F2F2F2" stroke-width="1.3821" stroke-linecap="round" stroke-miterlimit="10" x1="53.545" y1="64.374" x2="53.545" y2="92.43"/>
			
				<line fill="none" stroke="#F2F2F2" stroke-width="1.3821" stroke-linecap="round" stroke-miterlimit="10" x1="50.257" y1="64.374" x2="50.257" y2="92.43"/>
			
				<line fill="none" stroke="#F2F2F2" stroke-width="1.3821" stroke-linecap="round" stroke-miterlimit="10" x1="46.97" y1="64.374" x2="46.97" y2="92.43"/>
			
				<line fill="none" stroke="#F2F2F2" stroke-width="1.3821" stroke-linecap="round" stroke-miterlimit="10" x1="43.682" y1="64.374" x2="43.682" y2="92.43"/>
			
				<line fill="none" stroke="#F2F2F2" stroke-width="1.3821" stroke-linecap="round" stroke-miterlimit="10" x1="40.393" y1="64.374" x2="40.393" y2="92.43"/>
		</g>
		<rect x="37.708" y="94.403" fill="#E6E6E6" width="25.098" height="1.862"/>
		<rect x="36.12" y="95.828" fill="#E6E6E6" width="28.276" height="6.027"/>
		<path fill="#F2F2F2" d="M37.395,60.38c-0.387-0.385-0.579-0.895-0.579-1.4c0-0.507,0.192-1.011,0.579-1.398
			c0.449-0.451,1.037-0.673,1.625-0.673c0.587,0,1.176,0.223,1.623,0.673c0.52,0.519,0.781,1.202,0.781,1.883
			c0,0.68-0.262,1.362-0.781,1.881c-0.602,0.607-1.393,0.906-2.186,0.906c-0.791,0-1.582-0.299-2.186-0.906
			c-0.701-0.699-1.052-1.614-1.052-2.535c0-0.917,0.351-1.834,1.052-2.536c0.812-0.811,1.879-1.218,2.942-1.218H61.3
			c1.064,0,2.13,0.407,2.944,1.218c0.699,0.702,1.05,1.618,1.05,2.536c0,0.921-0.351,1.836-1.05,2.535
			c-0.604,0.607-1.395,0.906-2.187,0.906s-1.583-0.299-2.184-0.906c-0.521-0.519-0.783-1.201-0.783-1.881
			c0-0.682,0.262-1.364,0.783-1.883c0.446-0.451,1.035-0.673,1.62-0.673c0.59,0,1.177,0.223,1.625,0.673
			c0.387,0.387,0.581,0.891,0.581,1.398c0,0.505-0.194,1.015-0.581,1.4"/>
		
			<path fill="none" stroke="#E6E6E6" stroke-width="0.9941" stroke-linecap="round" stroke-linejoin="round" stroke-miterlimit="10" d="
			M37.395,60.38c-0.387-0.385-0.579-0.895-0.579-1.4c0-0.507,0.192-1.011,0.579-1.398c0.449-0.451,1.037-0.673,1.625-0.673
			c0.587,0,1.176,0.223,1.623,0.673c0.52,0.519,0.781,1.202,0.781,1.883c0,0.68-0.262,1.362-0.781,1.881
			c-0.602,0.607-1.393,0.906-2.186,0.906c-0.791,0-1.582-0.299-2.186-0.906c-0.701-0.699-1.052-1.614-1.052-2.535
			c0-0.917,0.351-1.834,1.052-2.536c0.812-0.811,1.879-1.218,2.942-1.218H61.3c1.064,0,2.13,0.407,2.944,1.218
			c0.699,0.702,1.05,1.618,1.05,2.536c0,0.921-0.351,1.836-1.05,2.535c-0.604,0.607-1.395,0.906-2.187,0.906
			s-1.583-0.299-2.184-0.906c-0.521-0.519-0.783-1.201-0.783-1.881c0-0.682,0.262-1.364,0.783-1.883
			c0.446-0.451,1.035-0.673,1.62-0.673c0.59,0,1.177,0.223,1.625,0.673c0.387,0.387,0.581,0.891,0.581,1.398
			c0,0.505-0.194,1.015-0.581,1.4"/>
		<g>
			<path fill-rule="evenodd" clip-rule="evenodd" fill="#E6E6E6" d="M32.258,7.03c0.34,1.103,0.678,1.917,1.747,2.677
				c0.174,0.119,0.347,0.239,0.518,0.358c0.556-0.059,1.108-0.119,1.663-0.179c0.003,0.009,0.009,0.018,0.014,0.028
				c-0.196,0.217-0.395,0.436-0.594,0.651c0.057,0.449,0.256,0.705,0.391,1.096c0.885,0.315,1.77,0.633,2.652,0.949l-0.005,0.02
				c-0.243,0.171-0.49,0.341-0.733,0.511c-0.062,0.112,0.034,0.499,0.097,0.622c0.104,0.172,0.656,0.287,0.893,0.366
				c0.743,0.269,1.485,0.541,2.229,0.81c-0.303,0.127-0.602,0.254-0.901,0.384c-0.099,0.146,0.163,0.453,0.203,0.656
				c0.604,0.218,1.21,0.432,1.811,0.646c-0.165,0.112-0.324,0.223-0.488,0.334c0.015,0.129,0.026,0.261,0.036,0.39
				c0.707,0.199,1.406,0.402,2.11,0.603l-0.013,0.042c-0.128,0.037-0.263,0.072-0.392,0.108c-0.009,0.012-0.023,0.023-0.035,0.035
				c0.03,0.168,0.063,0.335,0.095,0.502c0.854,0.407,1.707,0.816,2.561,1.224l-0.005,0.022c-0.65,0.426-1.537,0.358-2.007,1.149
				c0.133,0.765,0.249,1.035,0.729,1.63c0.081,0.114,0.163,0.227,0.241,0.339c0.404,0.063,0.805,0.126,1.209,0.189
				c0.362,0.064,0.729,0.131,1.09,0.196c0.864-0.051,1.733-0.103,2.593-0.153c-1.21,0.408-2.421,0.814-3.63,1.223
				c-0.53,0.161-1.063,0.322-1.596,0.485c-0.447,0.399-0.895,0.801-1.345,1.202c-0.086,0.537-0.165,1.075-0.252,1.612
				c-0.038,1.278,0.175,2.422-0.309,3.925c-0.433-0.708-0.864-1.417-1.301-2.125c-1.079-1.187-2.405-0.849-1.657-3.094
				c-0.132-0.185-0.271-0.373-0.404-0.559c-0.51-0.121-1.018-0.242-1.528-0.364c-0.336,0.045-0.674,0.089-1.012,0.134
				c-0.985-0.426-1.973-0.858-2.964-1.288c-0.309,0.086-0.62,0.173-0.934,0.258c-0.419,0.789,1.023,2.103,1.619,2.515
				c0.574,0.23,1.15,0.458,1.725,0.689c0.301,0.406,0.597,0.811,0.893,1.215c0.729,0.992,1.054,2.371,1.5,3.512
				c0.174,0.269,0.354,0.54,0.532,0.811c0.307,0.5,0.606,1.003,0.916,1.505c0.274,0.294,0.556,0.592,0.833,0.89
				c0.423,0.475,0.847,0.954,1.27,1.432c0.539,0.077,1.078,0.154,1.619,0.231c0.822-0.207,1.642-0.414,2.466-0.619
				c0.715-0.174,1.897-0.96,2.394-1.54c0.027-0.007,0.054-0.016,0.082-0.021c0.729,0.79,1.423,1.841,2.348,2.498
				c-0.533,0.567-1.497,0.678-2.097,1.143c-0.286,0.346-0.577,0.688-0.86,1.034c-0.042,0.053-0.396,1.943-0.45,2.276
				c-0.035,0.154-0.069,0.309-0.102,0.46c-0.364,0.531-1.041,0.887-1.493,1.297c-0.146,0.226-0.291,0.452-0.435,0.68
				c0.76,1.083,1.238,2.628,0.975,4.233c0.379,0.369,0.758,0.737,1.141,1.107c0.496,0.04,0.994,0.078,1.492,0.118
				c0.229-0.215,0.456-0.43,0.683-0.645c0.104-0.107-0.324-0.859-0.44-1.017c0.19-0.555,0.521-1.104,0.564-1.699
				c0.066-0.942-0.302-1.546,0.454-2.652c0.597-0.87,1.404-1.295,2.146-1.855c0.756-0.57,1.447-1.379,2.011-2.301
				c0.293-0.479,0.457-1.903,0.492-2.333c0.117-1.559,0.123-2.818-0.122-4.187c-0.251-0.681-0.507-1.361-0.761-2.041
				c-0.015-0.155,0.486-0.297,0.641-0.376c0.559-0.279,1.489-0.73,1.925-1.177c0.161-0.301,0.325-0.597,0.483-0.899
				c0.264-0.447,0.521-0.896,0.778-1.344c0.249-1.133,0.499-2.268,0.75-3.403c1.001,0.17,2.007,0.337,3.015,0.505
				c0.562-0.095,1.128-0.189,1.693-0.285c0.691-0.05,1.289-0.043,1.925-0.116c0.1,0.526,0.2,1.052,0.296,1.582
				c0.314,1.458,0.533,3.002,1.002,4.381c0.149,0.468,0.304,0.933,0.453,1.399c0.193,0.127,0.389,0.255,0.579,0.382l0.065,0.021
				c-0.071-0.501-0.284-0.928-0.266-1.478c0.109-0.631,0.217-1.264,0.322-1.897c0.291-0.468,0.578-0.937,0.868-1.408
				c0.416-0.741,0.838-1.481,1.254-2.222c0.459-0.724,0.814-1.552,1.275-2.356c0.161-0.316,0.32-0.632,0.479-0.949
				c-0.002-0.33-0.002-0.657-0.002-0.989c-0.207-0.438-0.416-0.876-0.625-1.314c-0.197-0.318,0.58-0.702,0.741-1.027
				c0.036-0.198,0.069-0.4,0.105-0.599c0.06-0.296,0.116-0.589,0.175-0.884c-0.011-0.189-0.576-0.884-0.772-1.013
				c-0.003-0.016-0.006-0.032-0.008-0.048c0.885-0.368,1.769-0.733,2.649-1.101c0.042-0.017,0.079-0.038,0.113-0.057
				c-0.008,0.242-0.017,0.479-0.029,0.719l0.364,0.12c0.794-0.246,1.358-0.92,1.729-2.016c-0.96-0.285-2.37-0.716-2.979-0.257
				c-0.052,0.14-0.106,0.279-0.16,0.416c0.188,0.144,0.377,0.284,0.567,0.423c-0.813,0.345-1.626,0.687-2.438,1.03
				c-0.031-0.104-0.059-0.206-0.087-0.312c-0.208-0.083-0.414-0.167-0.622-0.252c-0.255-0.216-0.293-0.632-0.397-0.935
				c-0.231-0.643-0.75-1.337-1.221-1.862c-0.805-0.627-1.609-1.256-2.413-1.884C65.356,8.793,64,7.354,63.475,5.855
				c-0.069-0.164-0.141-0.328-0.207-0.492c0.043-0.196,0.094-0.394,0.146-0.588c-0.034-0.191-0.063-0.382-0.098-0.573
				c-0.087-0.061-0.179-0.123-0.266-0.182c-0.222-0.022-0.332,0.187-0.478,0.312c-0.819,0.679-0.322,1.66-0.131,2.452
				c0.431,1.795,0.592,3.678,0.977,5.505c0.279,1.595,0.564,3.188,0.844,4.779c-1.753,0.646-3.508,1.287-5.259,1.932
				c-0.121,0.038-0.251-0.088-0.396-0.153c-0.034-0.146-0.076-0.292-0.112-0.44l0.006-0.021c0.141-0.086,0.279-0.175,0.418-0.261
				c0.464-0.14,0.937-0.073,1.32-0.362c0.66-0.5,0.573-0.945,0.605-1.756c0.093-0.331,0.188-0.66,0.281-0.988
				c-0.045-0.274-0.087-0.548-0.128-0.821c-0.168-0.238-0.331-0.471-0.498-0.707c-0.535-0.779-0.996-1.566-0.935-2.642
				c-0.19-0.103-0.378-0.203-0.562-0.303c0.117-0.143,0.234-0.284,0.354-0.427c-0.106-0.433-0.233-0.936-0.215-1.413
				c-0.134-0.021-0.269-0.042-0.405-0.063c-0.186,0.07-0.226,0.331-0.387,0.46c-0.194,0.03-0.385,0.062-0.572,0.092
				c-0.129-0.199-0.263-0.401-0.391-0.599c-0.655-0.59-1.912-0.883-2.662-0.716c-0.292,0.106-0.586,0.214-0.88,0.317
				c-0.348,0.006-0.69,0.007-1.04,0.01c-0.728,0.115-1.564,0.475-2.074,1.008c-0.562,0.58-0.555,1.446-0.691,2.222
				c-0.164-0.031-0.324-0.061-0.488-0.091c-0.377,1.11-0.135,1.751,0.328,2.418c-0.081,0.207-0.168,0.414-0.251,0.621
				c0.297,0.83,1.421,1.904,2.246,2.464c-0.335-0.039-0.666-0.078-0.997-0.118c-0.393-0.052-0.784-0.103-1.175-0.154
				c-0.656-0.421-1.553-1.933-1.589-2.672c0.045-0.344,0.088-0.691,0.133-1.038c0.083-0.199,0.162-0.403,0.246-0.601
				c0.232-0.451,0.683-1.771,0.698-2.243c0.029-1.051-0.396-1.704-0.926-2.473c-0.102-0.166-0.205-0.336-0.306-0.503
				c-0.636-0.373-1.274-0.752-1.907-1.127c-0.267-0.025-0.532-0.05-0.8-0.075c-0.484-0.058-0.971-0.117-1.454-0.176
				c-0.495,0.08-0.99,0.159-1.488,0.237c-2.114,0.318-4.056,0.747-6.091,1.184c-0.844,0.168-1.686,0.337-2.527,0.506
				C33.214,7.408,32.736,7.221,32.258,7.03z M67.658,16.123c-0.928,0.282-1.852,0.563-2.774,0.846
				c-0.57-2.971-1.143-5.938-1.714-8.906c0.785,0.872,1.29,1.96,1.992,2.875c0.49,0.437,0.983,0.876,1.473,1.313
				c0.324,0.358,1.052,1.887,1.121,2.375C67.725,15.124,67.69,15.622,67.658,16.123z M66.331,24.115
				c0.275-0.216,0.55-0.43,0.824-0.646c0.767-0.594,1.577-1.2,2.27-1.934c0.211,1.357-0.816,3.147-1.584,4.283
				c-0.172,0.226-0.342,0.451-0.51,0.679c-0.107,0.505-0.208,1.012-0.314,1.52c-0.071-0.283-0.145-0.565-0.214-0.847
				C66.575,26.255,66.185,25.187,66.331,24.115z M65.082,17.788c0.852-0.362,1.699-0.723,2.551-1.086
				c0.14,0.244,0.278,0.485,0.416,0.727c1.266,1.96-1.351,2.158-2.502,2.659l-0.022-0.008C65.38,19.316,65.23,18.553,65.082,17.788z
				 M59.479,19.701c1.626-0.584,3.261-1.167,4.89-1.749c0.131,0.766,0.263,1.531,0.391,2.299c-0.39,0.23-0.78,0.46-1.171,0.695
				c-0.893-0.336-1.788-0.672-2.682-1.008c-0.411,0.038-0.826,0.074-1.238,0.106C59.604,19.931,59.543,19.815,59.479,19.701z"/>
		</g>
		<rect x="42.295" y="52.464" fill-rule="evenodd" clip-rule="evenodd" fill="#E6E6E6" width="15.925" height="2.339"/>
		<rect x="44.196" y="49.688" fill-rule="evenodd" clip-rule="evenodd" fill="#E6E6E6" width="12.124" height="3.214"/>
	</g>
</g>
</svg>
