<?xml version="1.0" encoding="utf-8"?>
<!-- Generator: Adobe Illustrator 19.2.1, SVG Export Plug-In . SVG Version: 6.00 Build 0)  -->
<svg version="1.1" xmlns="http://www.w3.org/2000/svg" xmlns:xlink="http://www.w3.org/1999/xlink" x="0px" y="0px"
	 viewBox="0 0 100 100" style="enable-background:new 0 0 100 100;" xml:space="preserve">
<style type="text/css">
	.st0{fill:#FFA400;}
	.st1{fill:#FFC300;}
	.st2{fill:#BECD00;}
	.st3{fill:#964B00;}
	.st4{fill:#713A00;}
	.st5{fill:#65B32E;}
	.st6{fill:#008737;}
	.st7{fill:#E62D87;}
	.st8{fill:#FF7BAC;}
	.st9{fill:#FCEE21;}
	.st10{fill:#CCCCCC;}
	.st11{fill:#B3B3B3;}
</style>
<g id="Calque_11">
</g>
<g id="Calque_12">
</g>
<g id="Calque_1">
</g>
<g id="Calque_8">
</g>
<g id="Calque_6">
</g>
<g id="Calque_4">
</g>
<g id="Pictos">
	<g>
		<g>
			<rect x="23.7" y="65.8" class="st3" width="5.3" height="24.7"/>
			<rect x="29" y="65.8" class="st4" width="5.3" height="24.7"/>
			<polygon class="st6" points="40.5,47.5 50.9,47.5 29,10.1 29,73.6 55.8,73.6 			"/>
			<polygon class="st5" points="28.7,9.5 6.4,47.5 17.5,47.5 2.2,73.6 29,73.6 29,10.1 			"/>
		</g>
		<g>
			<rect x="62.5" y="77.2" class="st3" width="5.6" height="18.6"/>
			<rect x="68" y="77.2" class="st4" width="5.6" height="18.6"/>
			<polygon class="st5" points="81.1,57.4 94.6,57.4 77.9,33.5 88.6,33.5 68,4.2 68,81.1 97.8,81.1 			"/>
			<polygon class="st2" points="68,4.2 47.4,33.5 58.2,33.5 41.5,57.4 55,57.4 38.3,81.1 68,81.1 68,4.2 			"/>
		</g>
	</g>
</g>
<g id="Palisade">
</g>
<g id="Calque_2">
</g>
<g id="Calque_5">
</g>
</svg>
