<?xml version="1.0" encoding="utf-8"?>
<!-- Generator: Adobe Illustrator 16.0.4, SVG Export Plug-In . SVG Version: 6.00 Build 0)  -->
<!DOCTYPE svg PUBLIC "-//W3C//DTD SVG 1.1//EN" "http://www.w3.org/Graphics/SVG/1.1/DTD/svg11.dtd">
<svg version="1.1" id="Layer_1" xmlns="http://www.w3.org/2000/svg" xmlns:xlink="http://www.w3.org/1999/xlink" x="0px" y="0px"
	 width="100px" height="106.25px" viewBox="0 0 100 106.25" enable-background="new 0 0 100 106.25" xml:space="preserve">
<g>
	<polygon fill="#009245" points="86.67,97.807 84.461,69.162 36.549,69.162 34.34,97.807 	"/>
	<path fill="none" stroke="#009245" stroke-width="2.6242" stroke-linejoin="round" stroke-miterlimit="10" d="M30.394,64.369
		c0-0.85,0-1.08,0-1.08c0-1.234,0.616-1.467,1.466-1.467c0.849,0,4.937,0,4.937,0"/>
	<ellipse fill="#006837" cx="60.505" cy="6.673" rx="6.805" ry="1.673"/>
	<path fill="#009245" d="M89.629,9.556c0-1.592-13.039-2.883-29.124-2.883c-16.084,0-29.124,1.291-29.124,2.883H89.629z"/>
	<polygon fill="#009245" points="84.461,69.152 36.549,69.152 31.99,10.059 89.02,10.059 	"/>
	
		<ellipse fill="none" stroke="#009245" stroke-width="0.6609" stroke-linejoin="round" stroke-miterlimit="10" cx="32.311" cy="59.113" rx="1.325" ry="0.049"/>
	<rect x="31.65" y="59.113" fill="#009245" width="1.321" height="2.477"/>
	<circle fill="#009245" cx="32.311" cy="58.756" r="0.661"/>
	<g>
		<defs>
			<path id="SVGID_1_" d="M69.088,64.279c0,0.717-0.579,1.295-1.294,1.295c-0.717,0-1.295-0.578-1.295-1.295V15.917
				c0-0.715,0.578-1.294,1.295-1.294c0.715,0,1.294,0.58,1.294,1.294V64.279z"/>
		</defs>
		<clipPath id="SVGID_2_">
			<use xlink:href="#SVGID_1_"  overflow="visible"/>
		</clipPath>
		<rect x="64.498" y="11.921" clip-path="url(#SVGID_2_)" fill="#FFFFFF" width="5.884" height="54.241"/>
		<rect x="64.498" y="31.179" clip-path="url(#SVGID_2_)" fill="#00C2FF" width="5.884" height="34.983"/>
	</g>
	<path fill="#00C2FF" d="M28.507,70.186c0,1.053,0.855,1.908,1.91,1.908c1.054,0,1.909-0.855,1.909-1.908
		c0-1.055-1.909-5.447-1.909-5.447S28.507,69.131,28.507,70.186z"/>
	<polygon fill="#39B54A" points="50,69.152 36.549,69.162 31.99,10.059 46.622,10.059 	"/>
	<polygon fill="#39B54A" points="48.373,97.807 34.34,97.807 36.549,69.162 50,69.152 	"/>
	<polygon fill="#8CC63F" points="80.374,69.152 84.44,69.162 88.999,10.059 83.752,10.059 	"/>
	<polygon fill="#8CC63F" points="82.001,97.807 86.649,97.807 84.44,69.162 80.374,69.152 	"/>
	
		<line fill="none" stroke="#006837" stroke-width="1.6082" stroke-linecap="round" stroke-linejoin="round" stroke-miterlimit="10" x1="31.99" y1="10.059" x2="89.02" y2="10.059"/>
	
		<line fill="none" stroke="#006837" stroke-width="1.474" stroke-linecap="round" stroke-linejoin="round" stroke-miterlimit="10" x1="36.549" y1="69.152" x2="84.461" y2="69.152"/>
	<g>
		<path fill="none" stroke="#999999" stroke-width="1.6065" stroke-miterlimit="10" d="M37.101,95.376
			c7.766-12.049,5.013-19.546-5.086-19.546c-8.032,0-10.445,4.819-10.445,10.978"/>
		<rect x="20.565" y="82.791" fill="#999999" width="18.675" height="16.266"/>
		<rect x="20.565" y="82.791" fill="#808080" width="3.55" height="16.266"/>
		<rect x="34.815" y="82.791" fill="#CCCCCC" width="4.425" height="16.266"/>
		<polygon fill="#999999" points="8.35,79.847 21.47,91.995 21.47,94.473 21.47,96.682 6.81,81.284 		"/>
		<polygon fill="#999999" points="13.17,85.168 20.9,85.168 20.8,86.271 13.37,86.271 		"/>
		<path fill="#999999" d="M20.565,82.791c0-1.025,4.261-1.857,9.517-1.857c5.253,0,9.158,0.832,9.158,1.857H20.565z"/>
		
			<line fill="none" stroke="#4D4D4D" stroke-width="0.4061" stroke-linecap="round" stroke-linejoin="round" stroke-miterlimit="10" x1="20.565" y1="82.791" x2="39.24" y2="82.791"/>
		
			<line fill="none" stroke="#4D4D4D" stroke-width="0.4061" stroke-linecap="round" stroke-linejoin="round" stroke-miterlimit="10" x1="20.565" y1="98.17" x2="39.24" y2="98.17"/>
		<path fill="#333333" d="M29.132,81.126c-0.492,0.013-0.841,0.176-0.927,1.029c1.939,0,9.739,0,9.739,0
			C37.427,81.503,33.872,81.001,29.132,81.126z"/>
	</g>
</g>
</svg>
