<?xml version="1.0" encoding="utf-8"?>
<!-- Generator: Adobe Illustrator 19.2.1, SVG Export Plug-In . SVG Version: 6.00 Build 0)  -->
<svg version="1.1" xmlns="http://www.w3.org/2000/svg" xmlns:xlink="http://www.w3.org/1999/xlink" x="0px" y="0px"
	 viewBox="0 0 100 100" style="enable-background:new 0 0 100 100;" xml:space="preserve">
<style type="text/css">
	.st0{fill:#FFA400;}
	.st1{fill:#FFC300;}
	.st2{fill:#BECD00;}
	.st3{fill:#964B00;}
	.st4{fill:#713A00;}
	.st5{fill:#65B32E;}
	.st6{fill:#008737;}
	.st7{fill:#E62D87;}
	.st8{fill:#FF7BAC;}
	.st9{fill:#FCEE21;}
	.st10{fill:#CCCCCC;}
	.st11{fill:#B3B3B3;}
</style>
<g id="Calque_11">
</g>
<g id="Calque_12">
</g>
<g id="Calque_1">
</g>
<g id="Calque_8">
</g>
<g id="Calque_6">
</g>
<g id="Calque_4">
</g>
<g id="Pictos">
	<g>
		<polygon class="st4" points="68.4,71.6 67.6,71 57.3,81.7 57.3,70.6 53,70.6 53,95.8 57.3,95.8 57.3,85.7 		"/>
		<polygon class="st3" points="48.7,70.6 48.7,83 37.8,70.9 36.8,72.1 48.7,88.3 48.7,95.8 53,95.8 53,70.6 		"/>
		<path class="st2" d="M46.6,7.9L29.2,37.9c-3.8,6.5-2.7,14.8,2.7,20.1l12.1,12.1c2.5,2.5,5.8,3.8,9.1,3.8V4.2
			C50.5,4.2,48,5.4,46.6,7.9z"/>
		<path class="st5" d="M76.7,37.9L59.4,7.9C58,5.4,55.5,4.2,53,4.2v69.7c3.3,0,6.6-1.3,9.1-3.8l12.1-12.1
			C79.4,52.7,80.5,44.4,76.7,37.9z"/>
		<g>
			<path class="st2" d="M18,55.2l3.3,15.5c0.7,3.4,3.6,5.8,7.1,6l7.8,0.4c1.6,0.1,3.1-0.5,4.2-1.5L19,51.9
				C18.2,52.7,17.7,53.9,18,55.2z"/>
			<path class="st5" d="M37.4,56.1l-15.1-4.9c-1.2-0.4-2.5-0.1-3.3,0.7l21.3,23.6c1.1-1,1.8-2.4,1.9-4l0.4-7.8
				C42.9,60.3,40.7,57.2,37.4,56.1z"/>
		</g>
		<g>
			<path class="st5" d="M82,59.9l-2.8,12.4c-0.6,2.7-2.9,4.7-5.7,4.9l-6.2,0.4c-1.3,0.1-2.5-0.4-3.4-1.2l17.2-19.1
				C81.9,58,82.2,58.9,82,59.9z"/>
			<path class="st2" d="M66.5,60.8l12.1-4c1-0.3,2-0.1,2.6,0.5L63.9,76.4c-0.9-0.8-1.4-1.9-1.5-3.2L62.2,67
				C62.1,64.2,63.8,61.7,66.5,60.8z"/>
		</g>
	</g>
</g>
<g id="Palisade">
</g>
<g id="Calque_2">
</g>
<g id="Calque_5">
</g>
</svg>
