<?xml version="1.0" encoding="utf-8"?>
<!-- Generator: Adobe Illustrator 16.0.4, SVG Export Plug-In . SVG Version: 6.00 Build 0)  -->
<!DOCTYPE svg PUBLIC "-//W3C//DTD SVG 1.1//EN" "http://www.w3.org/Graphics/SVG/1.1/DTD/svg11.dtd">
<svg version="1.1" id="Layer_1" xmlns="http://www.w3.org/2000/svg" xmlns:xlink="http://www.w3.org/1999/xlink" x="0px" y="0px"
	 width="100px" height="100px" viewBox="0 0 100 100" enable-background="new 0 0 100 100" xml:space="preserve">
<g>
	<polygon fill="#FBD700" points="3.894,65.938 44.206,71.875 79.456,18.375 74.581,7.125 	"/>
</g>
<g>
	<g>
		<polygon fill="#1A1A1A" stroke="#FFFFFF" stroke-width="1.7335" stroke-miterlimit="10" points="55.975,91.584 47.178,92.735 
			42.858,85.057 52.187,84.784 		"/>
		<polygon fill="#1A1A1A" stroke="#FFFFFF" stroke-width="1.7335" stroke-miterlimit="10" points="47.178,92.735 35.771,94.232 
			30.746,85.414 42.858,85.057 		"/>
		<polygon fill="#1A1A1A" stroke="#FFFFFF" stroke-width="1.7335" stroke-miterlimit="10" points="35.771,94.232 20.386,96.249 
			14.383,85.896 30.746,85.414 		"/>
	</g>
	<g>
		<polygon fill="#1A1A1A" stroke="#FFFFFF" stroke-width="1.7335" stroke-miterlimit="10" points="48.369,77.927 38.499,77.308 
			34.1,69.485 44.52,71.014 		"/>
		<polygon fill="#1A1A1A" stroke="#FFFFFF" stroke-width="1.7335" stroke-miterlimit="10" points="38.499,77.308 25.669,76.503 
			20.534,67.495 34.1,69.485 		"/>
		<polygon fill="#1A1A1A" stroke="#FFFFFF" stroke-width="1.7335" stroke-miterlimit="10" points="25.669,76.503 8.305,75.414 
			2.149,64.799 20.534,67.495 		"/>
	</g>
	<g>
		<polygon fill="#1A1A1A" stroke="#FFFFFF" stroke-width="1.7335" stroke-miterlimit="10" points="52.188,84.785 42.858,85.058 
			38.499,77.308 48.369,77.927 		"/>
		<polygon fill="#1A1A1A" stroke="#FFFFFF" stroke-width="1.7335" stroke-miterlimit="10" points="42.858,85.058 30.746,85.414 
			25.669,76.503 38.499,77.308 		"/>
		<polygon fill="#1A1A1A" stroke="#FFFFFF" stroke-width="1.7335" stroke-miterlimit="10" points="30.746,85.414 14.383,85.896 
			8.305,75.414 25.669,76.503 		"/>
	</g>
	<polygon fill="#FFFFFF" points="27.272,79.32 21.945,76.271 24.059,73.678 29.13,76.721 	"/>
	<polygon fill="#FFFFFF" points="39.877,79.757 35.7,77.132 37.119,74.853 41.129,77.473 	"/>
	<polygon fill="#FFFFFF" points="32.336,88.203 27.235,85.52 29.153,82.619 34.012,85.319 	"/>
	<polygon fill="#FFFFFF" points="44.225,87.484 40.215,85.137 41.49,82.625 45.343,84.985 	"/>
</g>
<polygon fill="#FBD700" points="81.399,87.659 92.855,17.414 79.657,20.935 48.957,72.667 "/>
<g>
	<g>
		<polygon fill="#1A1A1A" stroke="#FFFFFF" stroke-width="1.142" stroke-miterlimit="10" points="82.395,88.334 76.307,89.103 
			73.32,84.012 79.656,83.783 		"/>
		<polygon fill="#1A1A1A" stroke="#FFFFFF" stroke-width="1.142" stroke-miterlimit="10" points="76.307,89.103 68.593,90.079 
			65.312,84.302 73.32,84.012 		"/>
		<polygon fill="#1A1A1A" stroke="#FFFFFF" stroke-width="1.142" stroke-miterlimit="10" points="68.593,90.079 58.488,91.358 
			54.862,84.68 65.312,84.302 		"/>
	</g>
	<g>
		<polygon fill="#1A1A1A" stroke="#FFFFFF" stroke-width="1.142" stroke-miterlimit="10" points="76.976,79.325 70.403,79.037 
			67.552,74.176 74.348,74.96 		"/>
		<polygon fill="#1A1A1A" stroke="#FFFFFF" stroke-width="1.142" stroke-miterlimit="10" points="70.403,79.037 62.117,78.675 
			59.004,73.191 67.552,74.176 		"/>
		<polygon fill="#1A1A1A" stroke="#FFFFFF" stroke-width="1.142" stroke-miterlimit="10" points="62.117,78.675 51.344,78.202 
			47.93,71.916 59.004,73.191 		"/>
	</g>
	<g>
		<polygon fill="#1A1A1A" stroke="#FFFFFF" stroke-width="1.142" stroke-miterlimit="10" points="79.657,83.783 73.32,84.013 
			70.403,79.037 76.976,79.325 		"/>
		<polygon fill="#1A1A1A" stroke="#FFFFFF" stroke-width="1.142" stroke-miterlimit="10" points="73.32,84.013 65.312,84.302 
			62.117,78.675 70.403,79.037 		"/>
		<polygon fill="#1A1A1A" stroke="#FFFFFF" stroke-width="1.142" stroke-miterlimit="10" points="65.312,84.302 54.862,84.68 
			51.344,78.202 62.117,78.675 		"/>
	</g>
	<polygon fill="#FFFFFF" points="63.114,80.432 59.766,78.572 61.129,76.934 64.324,78.772 	"/>
	<polygon fill="#FFFFFF" points="71.314,80.593 68.57,78.957 69.499,77.496 72.136,79.113 	"/>
	<polygon fill="#FFFFFF" points="66.336,86.105 63.034,84.385 64.296,82.515 67.447,84.226 	"/>
	<polygon fill="#FFFFFF" points="74.255,85.603 71.552,84.077 72.395,82.434 74.993,83.952 	"/>
</g>
<polygon opacity="0.6" fill="#FBD700" points="94.467,13.864 76.925,3.177 2.831,65.5 20.206,96.125 55.956,91.375 57.519,89.956 
	58.206,91.25 82.206,88.125 "/>
<circle fill="#FFFFFF" cx="83.335" cy="12.401" r="11.238"/>
<circle fill="#FBD700" cx="83.335" cy="12.401" r="7.41"/>
<circle fill="#FBD700" cx="83.335" cy="12.401" r="7.41"/>
</svg>
