<?xml version="1.0" encoding="utf-8"?>
<!-- Generator: Adobe Illustrator 16.0.4, SVG Export Plug-In . SVG Version: 6.00 Build 0)  -->
<!DOCTYPE svg PUBLIC "-//W3C//DTD SVG 1.1//EN" "http://www.w3.org/Graphics/SVG/1.1/DTD/svg11.dtd">
<svg version="1.1" id="Layer_1" xmlns="http://www.w3.org/2000/svg" xmlns:xlink="http://www.w3.org/1999/xlink" x="0px" y="0px"
	 width="100px" height="118.25px" viewBox="0 0 100 118.25" enable-background="new 0 0 100 118.25" xml:space="preserve">
<g>
	<g>
		<path fill="#E6E6E6" d="M78.197,51.038c-0.149,2.47-0.716,5.211-1.68,8.033c-0.016,0.045-0.038,0.091-0.055,0.137l3.049,1.234
			c0.039-0.157,0.083-0.315,0.119-0.472c0.762-3.234,0.937-6.284,0.725-8.932c-0.014-0.662-0.137-1.299-0.195-1.912
			c-0.037-0.306-0.074-0.606-0.11-0.901c-0.062-0.291-0.12-0.577-0.179-0.856c-0.12-0.556-0.235-1.089-0.345-1.599
			c-0.149-0.498-0.291-0.974-0.426-1.425c-0.238-0.904-0.576-1.685-0.849-2.357c-0.256-0.682-0.524-1.227-0.754-1.665
			c-0.452-0.881-0.694-1.35-0.694-1.35s0.137,0.51,0.392,1.466c0.141,0.475,0.299,1.066,0.412,1.765
			c0.124,0.698,0.312,1.475,0.397,2.383c0.056,0.448,0.114,0.919,0.175,1.414c0.022,0.497,0.046,1.017,0.069,1.559
			c0.038,0.539,0.033,1.1,0.015,1.682C78.237,49.822,78.272,50.42,78.197,51.038z"/>
		<path fill="#E6E6E6" d="M89.24,37.176c0.111,0.412,0.197,0.869,0.31,1.355c0.205,0.979,0.501,2.075,0.654,3.355
			c0.094,0.632,0.193,1.297,0.298,1.996c0.05,0.703,0.101,1.439,0.154,2.207c0.024,0.382,0.05,0.771,0.076,1.169
			c-0.001,0.399,0,0.805-0.001,1.218c-0.019,0.826,0.048,1.678-0.039,2.558c-0.067,0.876-0.136,1.781-0.207,2.712
			c-0.144,0.92-0.29,1.868-0.441,2.839c-0.173,0.965-0.433,1.94-0.644,2.942c-0.211,1.004-0.588,1.992-0.881,3.019
			c-0.149,0.448-0.312,0.897-0.479,1.347l3.129,1.267c0.168-0.576,0.321-1.148,0.462-1.716c1.117-4.475,1.444-8.712,1.219-12.41
			c-0.001-0.925-0.155-1.815-0.222-2.673c-0.044-0.428-0.087-0.849-0.129-1.262c-0.076-0.408-0.15-0.809-0.223-1.202
			c-0.149-0.781-0.292-1.53-0.43-2.246c-0.192-0.702-0.375-1.372-0.549-2.007c-0.305-1.275-0.752-2.376-1.104-3.33
			c-0.182-0.475-0.332-0.921-0.502-1.313c-0.181-0.388-0.345-0.74-0.492-1.055c-0.598-1.258-0.916-1.928-0.916-1.928
			s0.213,0.711,0.613,2.044C89,36.396,89.114,36.767,89.24,37.176z"/>
		<path fill="#E6E6E6" d="M93.811,35.609c0.129,0.457,0.228,0.964,0.356,1.505c0.236,1.088,0.573,2.308,0.752,3.73
			c0.11,0.704,0.225,1.444,0.347,2.222c0.06,0.783,0.121,1.602,0.186,2.457c0.03,0.426,0.062,0.86,0.093,1.303
			c0.003,0.444,0.005,0.896,0.007,1.357c-0.016,0.921,0.063,1.871-0.028,2.852c-0.07,0.978-0.142,1.987-0.217,3.026
			c-0.153,1.028-0.312,2.085-0.475,3.17c-0.188,1.077-0.472,2.167-0.703,3.287c-0.23,1.122-0.647,2.226-0.97,3.374
			c-0.198,0.603-0.413,1.208-0.641,1.813l3.145,1.272c0.221-0.733,0.428-1.463,0.609-2.187c1.254-4.956,1.64-9.652,1.409-13.755
			c0.004-1.026-0.163-2.015-0.231-2.967c-0.047-0.476-0.093-0.942-0.137-1.401c-0.081-0.453-0.161-0.898-0.239-1.334
			c-0.161-0.868-0.314-1.701-0.462-2.497c-0.209-0.781-0.407-1.526-0.597-2.232c-0.33-1.418-0.818-2.643-1.203-3.705
			c-0.199-0.529-0.363-1.026-0.547-1.464c-0.198-0.432-0.379-0.825-0.54-1.176c-0.654-1.403-1.002-2.152-1.002-2.152
			s0.243,0.789,0.7,2.268C93.538,34.744,93.668,35.155,93.811,35.609z"/>
		<path fill="#E6E6E6" d="M85.027,51.036c-0.143,3.044-0.79,6.434-1.95,9.935c-0.09,0.265-0.191,0.531-0.289,0.796l3.101,1.255
			c0.105-0.385,0.21-0.771,0.302-1.152c0.956-3.913,1.215-7.612,0.996-10.833c-0.009-0.806-0.147-1.581-0.211-2.328
			c-0.041-0.373-0.08-0.739-0.12-1.098c-0.069-0.355-0.136-0.704-0.203-1.045c-0.136-0.679-0.266-1.33-0.39-1.952
			c-0.173-0.61-0.338-1.192-0.492-1.744c-0.275-1.107-0.673-2.062-0.989-2.889c-0.162-0.412-0.298-0.798-0.448-1.138
			c-0.16-0.334-0.307-0.639-0.437-0.911c-0.531-1.087-0.815-1.667-0.815-1.667s0.179,0.62,0.513,1.782
			c0.086,0.29,0.182,0.614,0.287,0.97c0.093,0.358,0.163,0.755,0.256,1.179c0.168,0.852,0.414,1.804,0.538,2.915
			c0.076,0.549,0.156,1.126,0.242,1.732c0.036,0.61,0.074,1.248,0.114,1.914c0.058,0.661,0.063,1.352,0.048,2.067
			C85.058,49.538,85.108,50.276,85.027,51.036z"/>
		<path fill="#E6E6E6" d="M64.832,47.499c0.094,0.994,0.009,2.209-0.129,3.54c-0.119,0.984-0.37,2.037-0.732,3.112l2.85,1.153
			c0.211-1.549,0.207-2.998,0.041-4.264c-0.189-1.515-0.528-2.79-0.935-3.782c-0.166-0.502-0.388-0.938-0.572-1.308
			c-0.175-0.376-0.349-0.669-0.496-0.905c-0.296-0.474-0.453-0.726-0.453-0.726s0.052,0.293,0.15,0.843
			C64.684,45.713,64.758,46.505,64.832,47.499z"/>
		<path fill="#E6E6E6" d="M71.238,44.161c0.08,0.548,0.21,1.155,0.262,1.865c0.035,0.349,0.071,0.717,0.109,1.103
			c0.007,0.387,0.016,0.792,0.023,1.214c0.02,0.418,0.005,0.854-0.02,1.305c-0.029,0.451-0.012,0.914-0.081,1.392
			c-0.144,1.758-0.577,3.687-1.249,5.667l2.983,1.208c0.532-2.495,0.624-4.841,0.425-6.874c-0.199-2.088-0.591-3.863-1.096-5.256
			c-0.203-0.705-0.483-1.316-0.713-1.839c-0.215-0.531-0.437-0.951-0.627-1.29c-0.374-0.679-0.574-1.042-0.574-1.042
			s0.095,0.403,0.272,1.159C71.055,43.146,71.166,43.613,71.238,44.161z"/>
	</g>
	<g>
		<path fill="#E6E6E6" d="M29.098,72.588c-1.354-2.071-2.534-4.609-3.444-7.448c-0.015-0.046-0.023-0.096-0.037-0.142l-3.183,0.829
			c0.062,0.148,0.121,0.302,0.186,0.449c1.318,3.049,2.998,5.602,4.747,7.601c0.406,0.522,0.885,0.96,1.298,1.417
			c0.211,0.225,0.421,0.443,0.626,0.658c0.224,0.197,0.44,0.391,0.653,0.58c0.43,0.375,0.84,0.734,1.231,1.078
			c0.417,0.311,0.813,0.607,1.191,0.889c0.73,0.584,1.468,1.009,2.087,1.386c0.613,0.396,1.153,0.672,1.6,0.887
			c0.888,0.437,1.361,0.669,1.361,0.669s-0.414-0.328-1.188-0.943c-0.396-0.297-0.876-0.677-1.384-1.17
			c-0.516-0.486-1.13-0.998-1.74-1.674c-0.312-0.327-0.641-0.671-0.984-1.031c-0.313-0.386-0.643-0.789-0.984-1.209
			c-0.353-0.41-0.684-0.864-1.016-1.342C29.79,73.588,29.405,73.129,29.098,72.588z"/>
		<path fill="#E6E6E6" d="M28.505,90.301c-0.336-0.264-0.677-0.579-1.058-0.903c-0.749-0.663-1.64-1.366-2.526-2.302
			c-0.453-0.451-0.93-0.926-1.43-1.424c-0.46-0.535-0.939-1.096-1.44-1.68c-0.247-0.291-0.501-0.59-0.759-0.893
			c-0.236-0.32-0.48-0.646-0.727-0.979c-0.477-0.674-1.039-1.318-1.494-2.076c-0.469-0.743-0.953-1.51-1.451-2.299
			c-0.435-0.825-0.882-1.673-1.34-2.543c-0.438-0.877-0.811-1.814-1.238-2.744c-0.43-0.932-0.717-1.95-1.095-2.949
			c-0.147-0.448-0.284-0.905-0.419-1.366l-3.268,0.851c0.209,0.562,0.427,1.111,0.653,1.652c1.772,4.258,4.038,7.854,6.425,10.686
			c0.553,0.742,1.207,1.364,1.773,2.014c0.291,0.317,0.576,0.629,0.855,0.936c0.305,0.283,0.604,0.56,0.896,0.832
			c0.587,0.537,1.147,1.053,1.685,1.546c0.574,0.448,1.119,0.877,1.638,1.283c1.005,0.842,2.021,1.458,2.873,2.014
			c0.429,0.272,0.815,0.541,1.186,0.754c0.377,0.204,0.718,0.388,1.024,0.553c1.229,0.653,1.886,1.001,1.886,1.001
			s-0.596-0.443-1.713-1.275C29.163,90.783,28.849,90.554,28.505,90.301z"/>
		<path fill="#E6E6E6" d="M25.771,94.285c-0.376-0.291-0.759-0.639-1.185-0.996c-0.838-0.732-1.836-1.51-2.829-2.545
			c-0.508-0.499-1.042-1.025-1.603-1.576c-0.516-0.592-1.053-1.213-1.615-1.861c-0.278-0.323-0.562-0.652-0.852-0.99
			c-0.268-0.354-0.539-0.716-0.815-1.085c-0.536-0.748-1.167-1.464-1.679-2.306c-0.527-0.826-1.072-1.679-1.631-2.558
			c-0.49-0.917-0.994-1.859-1.511-2.828c-0.491-0.976-0.914-2.02-1.397-3.058c-0.483-1.037-0.808-2.172-1.234-3.285
			c-0.199-0.602-0.389-1.215-0.567-1.838l-3.282,0.854c0.261,0.722,0.529,1.431,0.815,2.12c1.95,4.725,4.442,8.725,7.075,11.879
			c0.609,0.826,1.333,1.52,1.957,2.244c0.32,0.354,0.635,0.699,0.944,1.042c0.335,0.315,0.665,0.625,0.989,0.929
			c0.646,0.601,1.267,1.178,1.859,1.729c0.634,0.502,1.237,0.98,1.811,1.436c1.111,0.941,2.234,1.633,3.175,2.256
			c0.476,0.305,0.904,0.606,1.312,0.849c0.418,0.229,0.797,0.436,1.135,0.622c1.363,0.735,2.088,1.129,2.088,1.129
			s-0.665-0.488-1.914-1.402C26.507,94.816,26.157,94.564,25.771,94.285z"/>
		<path fill="#E6E6E6" d="M23.616,76.664c-1.701-2.527-3.204-5.635-4.361-9.137c-0.086-0.267-0.163-0.54-0.242-0.812l-3.238,0.843
			c0.146,0.373,0.292,0.744,0.445,1.104c1.567,3.712,3.566,6.834,5.664,9.289c0.486,0.641,1.06,1.181,1.557,1.743
			c0.255,0.274,0.505,0.544,0.752,0.81c0.268,0.244,0.528,0.482,0.786,0.717c0.515,0.465,1.006,0.91,1.479,1.336
			c0.502,0.385,0.98,0.754,1.434,1.105c0.883,0.723,1.771,1.254,2.518,1.728c0.376,0.233,0.716,0.462,1.039,0.646
			c0.328,0.174,0.627,0.33,0.895,0.471c1.074,0.556,1.648,0.852,1.648,0.852s-0.514-0.391-1.475-1.125
			c-0.242-0.182-0.513-0.384-0.81-0.607c-0.288-0.232-0.581-0.509-0.909-0.793c-0.643-0.584-1.408-1.201-2.17-2.018
			c-0.389-0.396-0.797-0.811-1.229-1.246c-0.393-0.468-0.804-0.957-1.232-1.468c-0.441-0.495-0.857-1.046-1.271-1.63
			C24.485,77.884,24.005,77.322,23.616,76.664z"/>
		<path fill="#E6E6E6" d="M41.935,67.454c-0.668-0.741-1.324-1.768-2.008-2.917c-0.492-0.861-0.918-1.856-1.269-2.934l-2.976,0.773
			c0.754,1.369,1.623,2.53,2.512,3.447c1.055,1.103,2.088,1.925,3.006,2.479c0.434,0.304,0.871,0.521,1.238,0.707
			c0.366,0.198,0.68,0.329,0.939,0.431c0.52,0.203,0.797,0.312,0.797,0.312s-0.217-0.204-0.624-0.586
			C43.12,68.8,42.587,68.207,41.935,67.454z"/>
		<path fill="#E6E6E6" d="M38.785,73.955c-0.392-0.392-0.858-0.801-1.323-1.34c-0.236-0.26-0.484-0.533-0.745-0.82
			c-0.236-0.307-0.484-0.625-0.743-0.96c-0.266-0.325-0.514-0.683-0.764-1.06c-0.244-0.379-0.535-0.74-0.766-1.166
			c-0.934-1.496-1.735-3.302-2.378-5.292l-3.114,0.811c1.062,2.32,2.388,4.259,3.76,5.771c1.406,1.557,2.779,2.748,4.016,3.564
			c0.583,0.445,1.172,0.768,1.669,1.051c0.489,0.298,0.918,0.502,1.272,0.661c0.705,0.321,1.082,0.493,1.082,0.493
			s-0.315-0.267-0.908-0.767C39.538,74.66,39.169,74.352,38.785,73.955z"/>
	</g>
	<g>
		<path fill="#E6E6E6" d="M38.804,27.903c2.384-0.665,5.159-1.022,8.141-1.032c0.049,0,0.099,0.006,0.146,0.007l0.173-3.285
			c-0.16,0.015-0.324,0.024-0.484,0.041c-3.305,0.335-6.246,1.165-8.68,2.228c-0.621,0.229-1.183,0.553-1.743,0.809
			c-0.278,0.133-0.55,0.267-0.816,0.397c-0.256,0.154-0.506,0.302-0.751,0.447c-0.487,0.296-0.954,0.579-1.399,0.848
			c-0.423,0.304-0.825,0.592-1.208,0.867c-0.777,0.52-1.405,1.094-1.951,1.57c-0.562,0.465-0.989,0.896-1.329,1.257
			c-0.685,0.714-1.049,1.095-1.049,1.095s0.438-0.295,1.259-0.848c0.402-0.287,0.909-0.63,1.533-0.965
			c0.619-0.345,1.293-0.775,2.121-1.153c0.406-0.199,0.833-0.408,1.281-0.626c0.462-0.183,0.946-0.374,1.449-0.573
			c0.498-0.212,1.031-0.39,1.586-0.562C37.641,28.261,38.194,28.033,38.804,27.903z"/>
		<path fill="#E6E6E6" d="M22.099,21.984c0.353-0.241,0.756-0.47,1.181-0.735c0.858-0.513,1.798-1.15,2.958-1.712
			c0.566-0.295,1.163-0.606,1.789-0.932c0.649-0.277,1.328-0.564,2.036-0.865c0.353-0.148,0.714-0.299,1.08-0.454
			c0.377-0.128,0.761-0.263,1.152-0.397c0.787-0.25,1.571-0.592,2.431-0.796c0.851-0.222,1.728-0.452,2.631-0.688
			c0.918-0.165,1.86-0.335,2.828-0.508c0.969-0.152,1.975-0.225,2.99-0.351c1.019-0.128,2.076-0.094,3.143-0.152
			c0.472-0.005,0.948,0.002,1.429,0.014l0.177-3.372c-0.599,0.029-1.188,0.071-1.772,0.124c-4.594,0.402-8.707,1.475-12.128,2.894
			c-0.874,0.302-1.665,0.738-2.455,1.082c-0.391,0.182-0.773,0.359-1.15,0.533c-0.362,0.205-0.716,0.406-1.063,0.602
			c-0.689,0.397-1.351,0.776-1.983,1.139c-0.601,0.412-1.174,0.802-1.719,1.174c-1.105,0.703-2,1.485-2.787,2.13
			c-0.39,0.326-0.762,0.614-1.077,0.902c-0.309,0.298-0.586,0.567-0.836,0.81c-0.995,0.975-1.524,1.495-1.524,1.495
			s0.603-0.434,1.733-1.248C21.44,22.465,21.753,22.235,22.099,21.984z"/>
		<path fill="#E6E6E6" d="M19.127,18.174c0.391-0.271,0.838-0.53,1.308-0.828c0.951-0.577,1.994-1.293,3.28-1.927
			c0.63-0.333,1.293-0.684,1.987-1.051c0.72-0.312,1.475-0.637,2.263-0.977c0.392-0.167,0.792-0.339,1.201-0.512
			c0.418-0.148,0.846-0.297,1.28-0.449c0.875-0.285,1.748-0.67,2.706-0.903c0.946-0.253,1.924-0.515,2.931-0.782
			c1.022-0.19,2.072-0.385,3.152-0.585c1.078-0.173,2.201-0.261,3.337-0.408c1.135-0.147,2.314-0.113,3.505-0.184
			C46.711,9.559,47.353,9.564,48,9.582l0.178-3.387c-0.767,0.031-1.523,0.072-2.268,0.137c-5.093,0.431-9.659,1.597-13.462,3.153
			c-0.972,0.331-1.851,0.811-2.73,1.187c-0.434,0.199-0.858,0.394-1.278,0.585c-0.402,0.224-0.797,0.445-1.185,0.662
			c-0.768,0.435-1.506,0.851-2.21,1.25c-0.67,0.452-1.309,0.883-1.915,1.292c-1.233,0.775-2.232,1.637-3.11,2.346
			c-0.434,0.361-0.852,0.679-1.206,0.995c-0.344,0.329-0.656,0.628-0.936,0.894c-1.113,1.077-1.708,1.649-1.708,1.649
			s0.667-0.486,1.916-1.401C18.398,18.714,18.744,18.457,19.127,18.174z"/>
		<path fill="#E6E6E6" d="M36.575,21.446c2.923-0.857,6.34-1.351,10.027-1.396c0.28-0.001,0.564,0.008,0.847,0.015l0.176-3.341
			c-0.4,0.027-0.798,0.053-1.187,0.091c-4.012,0.372-7.593,1.333-10.566,2.591c-0.758,0.27-1.446,0.654-2.133,0.958
			c-0.339,0.16-0.671,0.317-0.999,0.472c-0.313,0.181-0.619,0.358-0.921,0.533c-0.599,0.35-1.172,0.684-1.721,1.005
			c-0.519,0.362-1.015,0.707-1.486,1.032c-0.956,0.623-1.731,1.31-2.408,1.878c-0.336,0.288-0.656,0.542-0.93,0.795
			c-0.265,0.26-0.504,0.498-0.719,0.71c-0.854,0.856-1.31,1.314-1.31,1.314s0.527-0.372,1.518-1.065
			c0.246-0.176,0.521-0.373,0.824-0.588c0.309-0.205,0.66-0.4,1.03-0.627c0.751-0.436,1.57-0.979,2.579-1.458
			c0.494-0.251,1.014-0.515,1.56-0.794c0.564-0.233,1.155-0.477,1.771-0.731c0.605-0.271,1.256-0.501,1.938-0.719
			C35.149,21.906,35.83,21.618,36.575,21.446z"/>
		<path fill="#E6E6E6" d="M39.816,41.691c0.909-0.413,2.086-0.728,3.388-1.032c0.97-0.209,2.047-0.314,3.181-0.322l0.162-3.07
			c-1.533,0.305-2.902,0.783-4.045,1.353c-1.37,0.672-2.466,1.408-3.271,2.116c-0.42,0.322-0.759,0.673-1.048,0.967
			c-0.3,0.289-0.52,0.548-0.694,0.766c-0.351,0.434-0.539,0.665-0.539,0.665s0.26-0.145,0.747-0.418
			C38.176,42.415,38.901,42.085,39.816,41.691z"/>
		<path fill="#E6E6E6" d="M34.572,36.724c0.491-0.255,1.022-0.576,1.677-0.856c0.319-0.146,0.654-0.3,1.007-0.462
			c0.364-0.133,0.742-0.273,1.14-0.418c0.391-0.155,0.807-0.283,1.241-0.408c0.435-0.118,0.867-0.286,1.343-0.377
			c1.708-0.438,3.673-0.656,5.764-0.667l0.169-3.214c-2.533,0.311-4.782,0.989-6.638,1.839c-1.909,0.87-3.459,1.819-4.611,2.75
			c-0.601,0.421-1.086,0.885-1.506,1.273c-0.433,0.376-0.756,0.724-1.016,1.013c-0.519,0.575-0.797,0.882-0.797,0.882
			s0.35-0.22,1.006-0.634C33.672,37.229,34.078,36.97,34.572,36.724z"/>
	</g>
	<g>
		<path fill="#BDCCD4" d="M49.983,53.665c-1.05,0-2.011-0.266-2.725-0.584c-0.043,0.562-9.037,51.697-1.013,56.94h7.508
			c8.062-5.243-0.955-56.339-1.002-56.947C52.03,53.397,51.056,53.665,49.983,53.665z"/>
		<g>
			<path fill="#DFEEF7" d="M53.369,110.021c4.44-7.294-1.477-57.009-1.387-55.176c-0.241,0.078-0.495,0.129-0.75,0.179
				c0.229,6.935,4.216,42.411,1.416,54.997C52.993,110.021,53.145,110.021,53.369,110.021z"/>
			<path fill="#DFEEF7" d="M49.982,55.162c-0.669,0-1.335-0.109-1.952-0.307c0.09-1.841-5.812,47.858-1.398,55.167
				c0.876,0,2.049,0,3.864,0c1.521-17.209-0.007-38.799-0.12-54.891C50.244,55.139,50.115,55.162,49.982,55.162z"/>
			<path fill="#FFFFFF" d="M51.232,55.024c-0.281,0.056-0.567,0.088-0.856,0.106c0.113,16.092,1.641,37.682,0.12,54.891
				c0.956,0,1.443,0,2.152,0C55.448,97.436,51.461,61.959,51.232,55.024z"/>
		</g>
	</g>
	<g>
		<polyline fill="#ACBBC3" points="49.377,51.913 50.531,55.502 40.347,58.718 39.231,55.108 49.377,51.913 		"/>
		<polyline fill="#ACBBC3" points="52.014,53.188 47.85,53.188 47.85,43.658 52.014,43.658 52.014,53.188 		"/>
		<polyline fill="#ACBBC3" points="51.84,51.913 50.688,55.502 60.816,58.718 61.971,55.108 51.84,51.913 		"/>
		<path fill="#BDCCD4" d="M54.937,53.771c0,2.726-2.216,4.918-4.959,4.918c-2.709,0-4.931-2.192-4.931-4.918
			c0-2.74,2.221-4.949,4.931-4.949C52.721,48.823,54.937,51.031,54.937,53.771"/>
		<path fill="#DFEEF7" d="M51.347,3.592L51.347,3.592V3.577c0-0.757-0.632-1.341-1.37-1.341c-0.726,0-1.36,0.584-1.36,1.341v0.015
			l-2.609,41.816l3.97,1.194l3.991-1.194L51.347,3.592"/>
		<path fill="#FFFFFF" d="M51.347,3.592L51.347,3.592V3.577c0-0.757-0.632-1.341-1.37-1.341c0.045,0.036,0,44.366,0,44.366
			l3.991-1.194L51.347,3.592"/>
		<path fill="#BDCCD4" d="M50.178,47.271h-0.402l-3.97-1.193l-0.496-0.713l2.61-41.816c-0.001-1.096,0.922-2.011,2.057-2.011
			c1.14,0,2.067,0.915,2.067,2.04l2.619,41.788l-0.497,0.713L50.178,47.271z M46.739,44.898l3.239,0.974l3.256-0.974L50.648,3.636
			c-0.001-0.413-0.302-0.702-0.671-0.702c-0.319,0-0.662,0.258-0.662,0.643L46.739,44.898z"/>
		<path fill="#DFEEF7" d="M43.598,55.677l-2.364-3.434L2.335,67.826l0,0l-0.011,0.03C1.641,68.045,1.25,68.85,1.466,69.54
			c0.224,0.695,1.034,1.073,1.719,0.87l0.033-0.036L43.711,59.82L43.598,55.677"/>
		<path fill="#FFFFFF" d="M43.598,55.677l-2.364-3.434L2.335,67.826l0,0l-0.011,0.03C1.641,68.045,1.25,68.85,1.466,69.54
			C1.62,69.621,43.598,55.677,43.598,55.677"/>
		<path fill="#BDCCD4" d="M2.803,71.163C2.803,71.163,2.803,71.163,2.803,71.163c-0.912,0-1.734-0.579-2.001-1.41
			c-0.167-0.532-0.106-1.12,0.165-1.619c0.243-0.446,0.623-0.771,1.078-0.923l0.031-0.033l38.898-15.583l0.835,0.252l2.364,3.434
			l0.124,0.377l0.113,4.143l-0.523,0.695L3.449,71.036L3.384,71.08C3.197,71.136,3.001,71.163,2.803,71.163z M2.587,68.455
			L2.51,68.529c-0.172,0.049-0.272,0.192-0.317,0.273c-0.089,0.165-0.112,0.362-0.06,0.527c0.079,0.247,0.368,0.436,0.67,0.436l0,0
			c0.058,0,0.114-0.007,0.167-0.021l0.073-0.047l39.955-10.414l-0.092-3.381l-1.931-2.804L2.595,68.475L2.587,68.455z"/>
		<path fill="#DFEEF7" d="M97.652,67.856l-0.014-0.03l0,0L58.735,52.243l-2.361,3.434l-0.112,4.144L96.77,70.374l0.013,0.036
			c0.745,0.203,1.507-0.175,1.735-0.87C98.77,68.85,98.376,68.045,97.652,67.856"/>
		<path fill="#FFFFFF" d="M56.374,55.677l-0.112,4.144L96.77,70.374l0.013,0.036c0.745,0.203,1.507-0.175,1.735-0.87L56.374,55.677z
			"/>
		<path fill="#BDCCD4" d="M97.188,71.163L97.188,71.163c-0.198,0-0.398-0.026-0.589-0.079l-0.053-0.045L56.088,60.497l-0.524-0.694
			l0.112-4.144l0.122-0.377l2.361-3.435l0.834-0.252l38.905,15.583l0.033,0.033c0.479,0.154,0.886,0.498,1.126,0.954
			c0.266,0.501,0.306,1.089,0.118,1.612C98.902,70.6,98.103,71.163,97.188,71.163z M96.995,69.744
			c0.063,0.015,0.128,0.021,0.193,0.021l0,0c0.309,0,0.579-0.179,0.667-0.445c0.062-0.173,0.049-0.35-0.033-0.504
			c-0.043-0.084-0.147-0.231-0.348-0.284l-0.089-0.076l-0.008,0.019L58.993,53.099l-1.926,2.803l-0.092,3.382l39.971,10.414
			L96.995,69.744z"/>
		<path fill="#DFEEF7" d="M53.711,53.768c0,2.05-1.665,3.699-3.73,3.699c-2.038,0-3.708-1.649-3.708-3.699
			c0-2.061,1.67-3.723,3.708-3.723C52.046,50.045,53.711,51.707,53.711,53.768"/>
		<g>
			<path fill="#DFEEF7" d="M53.013,53.833c-0.146,1.552-1.521,2.705-3.082,2.56c-1.568-0.147-2.713-1.538-2.568-3.089
				c0.148-1.57,1.531-2.721,3.1-2.574"/>
			<path fill="#ACBBC3" d="M53.013,53.833c0,0,0.014,0.215,0.015,0.588c-0.046,0.181-0.069,0.442-0.184,0.699
				c-0.062,0.127-0.127,0.263-0.195,0.406c-0.081,0.137-0.195,0.261-0.305,0.403c-0.234,0.263-0.535,0.533-0.92,0.706
				c-0.371,0.192-0.821,0.325-1.29,0.324l-0.178,0.008c-0.055-0.003-0.003,0.013-0.146-0.007l-0.074-0.01l-0.298-0.042
				c-0.175-0.002-0.466-0.117-0.712-0.217c-0.491-0.215-0.873-0.533-1.226-0.913c-0.304-0.412-0.55-0.87-0.657-1.363
				c-0.051-0.247-0.108-0.491-0.08-0.738l0.015-0.363l0.002-0.045l0.01-0.08l0.004-0.018l0.019-0.072l0.036-0.143
				c0.055-0.325,0.306-0.905,0.562-1.193c0.241-0.345,0.563-0.591,0.866-0.771c0.16-0.08,0.302-0.172,0.453-0.224
				c0.154-0.041,0.299-0.08,0.436-0.116c0.271-0.06,0.521-0.038,0.708-0.048c0.389,0.07,0.588,0.125,0.588,0.125
				s-0.219,0.057-0.561,0.132c-0.165,0.079-0.367,0.143-0.57,0.259c-0.204,0.124-0.415,0.27-0.609,0.468
				c-0.189,0.197-0.373,0.428-0.5,0.7c-0.084,0.131-0.117,0.267-0.151,0.395c-0.045,0.104-0.082,0.291-0.103,0.494
				c-0.048,0.291,0.008,0.628,0.086,0.929c0.076,0.312,0.252,0.591,0.444,0.849c0.208,0.238,0.471,0.47,0.734,0.594
				c0.137,0.046,0.207,0.139,0.438,0.179l0.292,0.074l0.072,0.018c-0.094-0.012,0.008-0.002,0.002-0.004l0.117,0.005
				c0.31,0.028,0.625,0.008,0.91-0.08c0.289-0.075,0.552-0.21,0.781-0.359c0.229-0.156,0.416-0.333,0.572-0.512
				c0.153-0.175,0.248-0.351,0.358-0.499C52.92,54.027,53.013,53.833,53.013,53.833z"/>
		</g>
		<path fill="#FFFFFF" d="M52.461,52.368c0,0.59-0.48,1.065-1.075,1.065c-0.587,0-1.069-0.475-1.069-1.065
			c0-0.594,0.481-1.073,1.069-1.073C51.98,51.295,52.461,51.774,52.461,52.368"/>
	</g>
</g>
</svg>
