<?xml version="1.0" encoding="utf-8"?>
<!-- Generator: Adobe Illustrator 16.0.4, SVG Export Plug-In . SVG Version: 6.00 Build 0)  -->
<!DOCTYPE svg PUBLIC "-//W3C//DTD SVG 1.1//EN" "http://www.w3.org/Graphics/SVG/1.1/DTD/svg11.dtd">
<svg version="1.1" id="Layer_1" xmlns="http://www.w3.org/2000/svg" xmlns:xlink="http://www.w3.org/1999/xlink" x="0px" y="0px"
	 width="100px" height="100px" viewBox="0 0 100 100" enable-background="new 0 0 100 100" xml:space="preserve">
<g>
	<g>
		<g>
			<g>
				<path fill="#8CC63F" d="M25.793,81.951c2.473-0.494,3.627-5.275,2.968-6.926c-0.66-1.648-3.628,4.699-3.628,4.699L25.793,81.951
					z"/>
				<path fill="#8CC63F" d="M24.349,77.953c-2.134-0.428-3.13-4.551-2.561-5.975c0.569-1.422,3.129,4.055,3.129,4.055L24.349,77.953
					z"/>
				<ellipse fill="#39B54A" cx="25.021" cy="91.297" rx="3.669" ry="0.584"/>
				<ellipse fill="#009245" cx="25.021" cy="91.297" rx="2.682" ry="0.426"/>
				<g>
					<polygon fill="#8CC63F" points="26.827,91.297 23.338,91.297 25.083,43.74 					"/>
					<polygon fill="#39B54A" points="26.206,91.021 25.135,91.021 25.083,43.74 					"/>
					<g>
						<path fill="#FFFFFF" stroke="#F2F2F2" stroke-width="1.0731" stroke-miterlimit="10" d="M29.769,55.334
							c-1.686,0.701-3.617-0.098-4.319-1.783c-0.698-1.683-0.428-9.632-0.428-9.632s5.83,5.414,6.528,7.1
							C32.25,52.7,31.452,54.633,29.769,55.334z"/>
						<path fill="#FFFFFF" stroke="#F2F2F2" stroke-width="1.0731" stroke-miterlimit="10" d="M36.438,39.172
							c0.699,1.683-0.1,3.617-1.783,4.316c-1.684,0.702-9.634,0.431-9.634,0.431s5.413-5.828,7.098-6.528
							C33.805,36.689,35.738,37.488,36.438,39.172z"/>
						<path fill="#FFFFFF" stroke="#F2F2F2" stroke-width="1.0731" stroke-miterlimit="10" d="M20.274,32.502
							c1.686-0.7,3.618,0.098,4.319,1.782c0.699,1.683,0.428,9.635,0.428,9.635s-5.827-5.416-6.527-7.1
							C17.793,35.136,18.592,33.202,20.274,32.502z"/>
						<path fill="#FFFFFF" stroke="#F2F2F2" stroke-width="1.0731" stroke-miterlimit="10" d="M13.604,48.664
							c-0.698-1.684,0.1-3.617,1.783-4.317c1.683-0.701,9.634-0.428,9.634-0.428s-5.414,5.825-7.098,6.529
							C16.238,51.147,14.305,50.347,13.604,48.664z"/>
						<path fill="#FFFFFF" stroke="#F2F2F2" stroke-width="1.0731" stroke-miterlimit="10" d="M36.449,48.635
							c-0.694,1.687-2.625,2.487-4.313,1.792c-1.686-0.694-7.114-6.508-7.114-6.508s7.949-0.294,9.635,0.402
							C36.344,45.017,37.146,46.95,36.449,48.635z"/>
						<path fill="#FFFFFF" stroke="#F2F2F2" stroke-width="1.0731" stroke-miterlimit="10" d="M29.737,32.489
							c1.686,0.696,2.489,2.627,1.793,4.314c-0.695,1.686-6.509,7.115-6.509,7.115s-0.292-7.951,0.403-9.636
							C26.121,32.598,28.053,31.794,29.737,32.489z"/>
						<path fill="#FFFFFF" stroke="#F2F2F2" stroke-width="1.0731" stroke-miterlimit="10" d="M13.592,39.202
							c0.696-1.688,2.628-2.489,4.313-1.793c1.687,0.694,7.116,6.51,7.116,6.51s-7.949,0.291-9.634-0.404
							C13.7,42.818,12.897,40.886,13.592,39.202z"/>
						<path fill="#FFFFFF" stroke="#F2F2F2" stroke-width="1.0731" stroke-miterlimit="10" d="M20.307,55.344
							c-1.688-0.693-2.49-2.624-1.795-4.312c0.696-1.686,6.51-7.113,6.51-7.113s0.293,7.947-0.404,9.632
							C23.922,55.238,21.991,56.041,20.307,55.344z"/>
					</g>
					<circle fill="#FBD700" stroke="#F2F2F2" stroke-width="1.0731" stroke-miterlimit="10" cx="25.021" cy="43.918" r="3.484"/>
					<circle fill="#FBD700" cx="25.021" cy="43.918" r="3.484"/>
					<circle fill="#F7931E" cx="24.142" cy="42.085" r="0.61"/>
					<circle fill="#F7931E" cx="26.333" cy="45.036" r="0.611"/>
					<circle fill="#F7931E" cx="24.232" cy="44.768" r="0.611"/>
					<circle fill="#F7931E" cx="22.967" cy="44.499" r="0.363"/>
					<circle fill="#F7931E" cx="27.501" cy="44.093" r="0.363"/>
					<circle fill="#F7931E" cx="26.182" cy="41.997" r="0.363"/>
					<circle fill="#F7931E" cx="25.058" cy="43.405" r="0.363"/>
					<circle fill="#F7931E" cx="24.304" cy="46.379" r="0.363"/>
				</g>
				<circle fill="#39B54A" cx="27.913" cy="77.805" r="0.474"/>
				<circle fill="#39B54A" cx="23.031" cy="74.848" r="0.473"/>
				<circle fill="#39B54A" cx="28.054" cy="76.271" r="0.307"/>
				<circle fill="#39B54A" cx="27.038" cy="79.783" r="0.307"/>
				<circle fill="#39B54A" cx="23.337" cy="75.965" r="0.307"/>
			</g>
			<g>
				<path fill="#8CC63F" d="M50.771,81.951c2.474-0.494,3.628-5.275,2.969-6.926c-0.66-1.648-3.628,4.699-3.628,4.699L50.771,81.951
					z"/>
				<path fill="#8CC63F" d="M49.328,77.953c-2.134-0.428-3.13-4.551-2.561-5.975c0.569-1.422,3.129,4.055,3.129,4.055L49.328,77.953
					z"/>
				<ellipse fill="#39B54A" cx="50" cy="91.297" rx="3.669" ry="0.584"/>
				<ellipse fill="#009245" cx="50" cy="91.297" rx="2.682" ry="0.426"/>
				<g>
					<polygon fill="#8CC63F" points="51.807,91.297 48.317,91.297 50.062,43.74 					"/>
					<polygon fill="#39B54A" points="51.186,91.021 50.114,91.021 50.062,43.74 					"/>
					<g>
						<path fill="#C1BEFF" stroke="#F2F2F2" stroke-width="1.0731" stroke-miterlimit="10" d="M54.747,55.334
							c-1.685,0.701-3.616-0.098-4.318-1.783c-0.698-1.683-0.428-9.632-0.428-9.632s5.829,5.414,6.528,7.1
							C57.229,52.7,56.432,54.633,54.747,55.334z"/>
						<path fill="#C1BEFF" stroke="#F2F2F2" stroke-width="1.0731" stroke-miterlimit="10" d="M61.417,39.172
							c0.7,1.683-0.1,3.617-1.782,4.316c-1.684,0.702-9.634,0.431-9.634,0.431s5.413-5.828,7.098-6.528
							C58.784,36.689,60.718,37.488,61.417,39.172z"/>
						<path fill="#C1BEFF" stroke="#F2F2F2" stroke-width="1.0731" stroke-miterlimit="10" d="M45.254,32.502
							c1.686-0.7,3.618,0.098,4.319,1.782c0.699,1.683,0.428,9.635,0.428,9.635s-5.827-5.416-6.528-7.1
							C42.772,35.136,43.57,33.202,45.254,32.502z"/>
						<path fill="#C1BEFF" stroke="#F2F2F2" stroke-width="1.0731" stroke-miterlimit="10" d="M38.584,48.664
							c-0.699-1.684,0.1-3.617,1.783-4.317c1.683-0.701,9.634-0.428,9.634-0.428s-5.414,5.825-7.098,6.529
							C41.217,51.147,39.284,50.347,38.584,48.664z"/>
						<path fill="#C1BEFF" stroke="#F2F2F2" stroke-width="1.0731" stroke-miterlimit="10" d="M61.429,48.635
							c-0.694,1.687-2.626,2.487-4.313,1.792c-1.686-0.694-7.114-6.508-7.114-6.508s7.949-0.294,9.635,0.402
							C61.322,45.017,62.125,46.95,61.429,48.635z"/>
						<path fill="#C1BEFF" stroke="#F2F2F2" stroke-width="1.0731" stroke-miterlimit="10" d="M54.717,32.489
							c1.686,0.696,2.489,2.627,1.793,4.314c-0.695,1.686-6.509,7.115-6.509,7.115s-0.292-7.951,0.403-9.636
							C51.101,32.598,53.031,31.794,54.717,32.489z"/>
						<path fill="#C1BEFF" stroke="#F2F2F2" stroke-width="1.0731" stroke-miterlimit="10" d="M38.571,39.202
							c0.696-1.688,2.628-2.489,4.313-1.793c1.687,0.694,7.116,6.51,7.116,6.51s-7.949,0.291-9.634-0.404
							C38.68,42.818,37.877,40.886,38.571,39.202z"/>
						<path fill="#C1BEFF" stroke="#F2F2F2" stroke-width="1.0731" stroke-miterlimit="10" d="M45.285,55.344
							c-1.687-0.693-2.489-2.624-1.794-4.312c0.696-1.686,6.51-7.113,6.51-7.113s0.293,7.947-0.404,9.632
							C48.901,55.238,46.971,56.041,45.285,55.344z"/>
					</g>
					<circle fill="#FBD700" stroke="#F2F2F2" stroke-width="1.0731" stroke-miterlimit="10" cx="50.001" cy="43.918" r="3.484"/>
					<circle fill="#FBD700" cx="50.001" cy="43.918" r="3.484"/>
					<circle fill="#F7931E" cx="49.121" cy="42.085" r="0.61"/>
					<circle fill="#F7931E" cx="51.312" cy="45.036" r="0.611"/>
					<circle fill="#F7931E" cx="49.211" cy="44.768" r="0.611"/>
					<circle fill="#F7931E" cx="47.946" cy="44.499" r="0.363"/>
					<circle fill="#F7931E" cx="52.481" cy="44.093" r="0.363"/>
					<circle fill="#F7931E" cx="51.161" cy="41.997" r="0.363"/>
					<circle fill="#F7931E" cx="50.038" cy="43.405" r="0.363"/>
					<circle fill="#F7931E" cx="49.283" cy="46.379" r="0.363"/>
				</g>
				<circle fill="#39B54A" cx="52.893" cy="77.805" r="0.474"/>
				<circle fill="#39B54A" cx="48.01" cy="74.848" r="0.474"/>
				<circle fill="#39B54A" cx="53.034" cy="76.271" r="0.307"/>
				<circle fill="#39B54A" cx="52.017" cy="79.783" r="0.307"/>
				<circle fill="#39B54A" cx="48.317" cy="75.965" r="0.307"/>
			</g>
			<g>
				<path fill="#8CC63F" d="M75.751,81.951c2.474-0.494,3.628-5.275,2.968-6.926c-0.659-1.648-3.627,4.699-3.627,4.699
					L75.751,81.951z"/>
				<path fill="#8CC63F" d="M74.307,77.953c-2.133-0.428-3.129-4.551-2.56-5.975c0.568-1.422,3.129,4.055,3.129,4.055L74.307,77.953
					z"/>
				<ellipse fill="#39B54A" cx="74.979" cy="91.297" rx="3.669" ry="0.584"/>
				<ellipse fill="#009245" cx="74.979" cy="91.297" rx="2.682" ry="0.426"/>
				<g>
					<polygon fill="#8CC63F" points="76.786,91.297 73.297,91.297 75.041,43.74 					"/>
					<polygon fill="#39B54A" points="76.165,91.021 75.094,91.021 75.041,43.74 					"/>
					<g>
						<path fill="#00C2FF" stroke="#F2F2F2" stroke-width="1.0731" stroke-miterlimit="10" d="M79.727,55.334
							c-1.685,0.701-3.617-0.098-4.318-1.783c-0.698-1.683-0.428-9.632-0.428-9.632s5.829,5.414,6.527,7.1
							C82.209,52.7,81.41,54.633,79.727,55.334z"/>
						<path fill="#00C2FF" stroke="#F2F2F2" stroke-width="1.0731" stroke-miterlimit="10" d="M86.396,39.172
							c0.699,1.683-0.1,3.617-1.782,4.316c-1.684,0.702-9.634,0.431-9.634,0.431s5.413-5.828,7.098-6.528
							C83.763,36.689,85.697,37.488,86.396,39.172z"/>
						<path fill="#00C2FF" stroke="#F2F2F2" stroke-width="1.0731" stroke-miterlimit="10" d="M70.233,32.502
							c1.686-0.7,3.617,0.098,4.319,1.782c0.699,1.683,0.428,9.635,0.428,9.635s-5.827-5.416-6.528-7.1
							C67.752,35.136,68.55,33.202,70.233,32.502z"/>
						<path fill="#00C2FF" stroke="#F2F2F2" stroke-width="1.0731" stroke-miterlimit="10" d="M63.563,48.664
							c-0.699-1.684,0.099-3.617,1.783-4.317c1.683-0.701,9.634-0.428,9.634-0.428s-5.414,5.825-7.098,6.529
							C66.196,51.147,64.264,50.347,63.563,48.664z"/>
						<path fill="#00C2FF" stroke="#F2F2F2" stroke-width="1.0731" stroke-miterlimit="10" d="M86.408,48.635
							c-0.694,1.687-2.626,2.487-4.313,1.792c-1.686-0.694-7.114-6.508-7.114-6.508s7.949-0.294,9.635,0.402
							C86.302,45.017,87.104,46.95,86.408,48.635z"/>
						<path fill="#00C2FF" stroke="#F2F2F2" stroke-width="1.0731" stroke-miterlimit="10" d="M79.696,32.489
							c1.686,0.696,2.489,2.627,1.793,4.314c-0.696,1.686-6.509,7.115-6.509,7.115s-0.292-7.951,0.402-9.636
							C76.08,32.598,78.011,31.794,79.696,32.489z"/>
						<path fill="#00C2FF" stroke="#F2F2F2" stroke-width="1.0731" stroke-miterlimit="10" d="M63.551,39.202
							c0.696-1.688,2.628-2.489,4.313-1.793c1.687,0.694,7.116,6.51,7.116,6.51s-7.949,0.291-9.634-0.404
							C63.658,42.818,62.855,40.886,63.551,39.202z"/>
						<path fill="#00C2FF" stroke="#F2F2F2" stroke-width="1.0731" stroke-miterlimit="10" d="M70.265,55.344
							c-1.687-0.693-2.489-2.624-1.794-4.312c0.695-1.686,6.51-7.113,6.51-7.113s0.293,7.947-0.405,9.632
							C73.881,55.238,71.949,56.041,70.265,55.344z"/>
					</g>
					<circle fill="#FBD700" stroke="#F2F2F2" stroke-width="1.0731" stroke-miterlimit="10" cx="74.98" cy="43.918" r="3.484"/>
					<circle fill="#FBD700" cx="74.98" cy="43.918" r="3.484"/>
					<circle fill="#F7931E" cx="74.101" cy="42.085" r="0.61"/>
					<circle fill="#F7931E" cx="76.292" cy="45.036" r="0.611"/>
					<circle fill="#F7931E" cx="74.19" cy="44.768" r="0.611"/>
					<circle fill="#F7931E" cx="72.926" cy="44.499" r="0.363"/>
					<circle fill="#F7931E" cx="77.46" cy="44.093" r="0.363"/>
					<circle fill="#F7931E" cx="76.14" cy="41.997" r="0.363"/>
					<circle fill="#F7931E" cx="75.017" cy="43.405" r="0.363"/>
					<circle fill="#F7931E" cx="74.262" cy="46.379" r="0.363"/>
				</g>
				<circle fill="#39B54A" cx="77.872" cy="77.805" r="0.474"/>
				<circle fill="#39B54A" cx="72.989" cy="74.848" r="0.474"/>
				<circle fill="#39B54A" cx="78.013" cy="76.271" r="0.307"/>
				<circle fill="#39B54A" cx="76.997" cy="79.783" r="0.307"/>
				<circle fill="#39B54A" cx="73.296" cy="75.965" r="0.307"/>
			</g>
		</g>
		<g>
			<g>
				<path fill="#8CC63F" d="M13.303,81.951c2.473-0.494,3.628-5.275,2.968-6.924c-0.66-1.65-3.628,4.699-3.628,4.699L13.303,81.951z
					"/>
				<path fill="#8CC63F" d="M11.858,77.953c-2.133-0.428-3.129-4.551-2.561-5.973c0.569-1.422,3.13,4.053,3.13,4.053L11.858,77.953z
					"/>
				<ellipse fill="#39B54A" cx="12.531" cy="91.299" rx="3.669" ry="0.584"/>
				<ellipse fill="#009245" cx="12.531" cy="91.299" rx="2.682" ry="0.428"/>
				<g>
					<polygon fill="#8CC63F" points="14.337,91.299 10.848,91.299 12.593,57.242 					"/>
					<polygon fill="#39B54A" points="13.716,91.021 12.645,91.021 12.593,57.242 					"/>
					<g>
						<path fill="#FFFFFF" stroke="#F2F2F2" stroke-width="1.0731" stroke-miterlimit="10" d="M17.278,68.838
							c-1.686,0.699-3.617-0.1-4.318-1.785c-0.699-1.684-0.429-9.633-0.429-9.633s5.83,5.414,6.528,7.1
							C19.76,66.201,18.962,68.135,17.278,68.838z"/>
						<path fill="#FFFFFF" stroke="#F2F2F2" stroke-width="1.0731" stroke-miterlimit="10" d="M23.948,52.673
							c0.699,1.683-0.1,3.618-1.783,4.317c-1.684,0.701-9.634,0.43-9.634,0.43s5.413-5.829,7.099-6.528
							C21.314,50.19,23.248,50.989,23.948,52.673z"/>
						<path fill="#FFFFFF" stroke="#F2F2F2" stroke-width="1.0731" stroke-miterlimit="10" d="M7.784,46.004
							c1.686-0.701,3.618,0.098,4.319,1.781c0.699,1.684,0.428,9.635,0.428,9.635s-5.827-5.415-6.527-7.099
							S6.102,46.704,7.784,46.004z"/>
						<path fill="#FFFFFF" stroke="#F2F2F2" stroke-width="1.0731" stroke-miterlimit="10" d="M1.114,62.166
							c-0.698-1.684,0.1-3.617,1.783-4.318s9.634-0.428,9.634-0.428s-5.414,5.826-7.098,6.529
							C3.748,64.648,1.814,63.85,1.114,62.166z"/>
						<path fill="#FFFFFF" stroke="#F2F2F2" stroke-width="1.0731" stroke-miterlimit="10" d="M23.96,62.137
							c-0.695,1.686-2.626,2.486-4.314,1.791c-1.686-0.693-7.114-6.508-7.114-6.508s7.949-0.293,9.635,0.402
							C23.854,58.518,24.656,60.451,23.96,62.137z"/>
						<path fill="#FFFFFF" stroke="#F2F2F2" stroke-width="1.0731" stroke-miterlimit="10" d="M17.247,45.991
							c1.686,0.696,2.489,2.626,1.793,4.313c-0.695,1.687-6.509,7.115-6.509,7.115s-0.291-7.95,0.403-9.635
							C13.631,46.1,15.562,45.296,17.247,45.991z"/>
						<path fill="#FFFFFF" stroke="#F2F2F2" stroke-width="1.0731" stroke-miterlimit="10" d="M1.102,52.704
							c0.696-1.688,2.628-2.49,4.313-1.795c1.688,0.695,7.116,6.511,7.116,6.511s-7.948,0.291-9.634-0.404
							C1.21,56.32,0.407,54.387,1.102,52.704z"/>
						<path fill="#FFFFFF" stroke="#F2F2F2" stroke-width="1.0731" stroke-miterlimit="10" d="M7.816,68.848
							c-1.688-0.695-2.49-2.625-1.794-4.314c0.695-1.686,6.509-7.113,6.509-7.113s0.293,7.947-0.404,9.635
							C11.433,68.74,9.501,69.543,7.816,68.848z"/>
					</g>
					<path fill="#FBD700" stroke="#F2F2F2" stroke-width="1.0731" stroke-miterlimit="10" d="M13.869,60.637
						c-1.777,0.74-3.816-0.102-4.555-1.879c-0.74-1.777,0.102-3.816,1.88-4.557c1.776-0.736,3.816,0.105,4.555,1.879
						C16.488,57.859,15.647,59.898,13.869,60.637z"/>
					<path fill="#FBD700" d="M13.869,60.637c-1.777,0.74-3.816-0.102-4.555-1.879c-0.74-1.777,0.102-3.816,1.88-4.557
						c1.776-0.736,3.816,0.105,4.555,1.879C16.488,57.859,15.647,59.898,13.869,60.637z"/>
					<circle fill="#F7931E" cx="11.652" cy="55.587" r="0.61"/>
					<circle fill="#F7931E" cx="13.843" cy="58.537" r="0.611"/>
					<circle fill="#F7931E" cx="11.742" cy="58.27" r="0.611"/>
					<circle fill="#F7931E" cx="10.478" cy="58.001" r="0.363"/>
					<circle fill="#F7931E" cx="15.011" cy="57.595" r="0.363"/>
					<path fill="#F7931E" d="M13.831,55.834c-0.185,0.078-0.397-0.01-0.475-0.195c-0.077-0.188,0.011-0.398,0.195-0.475
						c0.186-0.08,0.398,0.01,0.477,0.195C14.104,55.545,14.019,55.758,13.831,55.834z"/>
					<circle fill="#F7931E" cx="12.568" cy="56.907" r="0.363"/>
					<circle fill="#F7931E" cx="11.813" cy="59.88" r="0.363"/>
				</g>
				<circle fill="#39B54A" cx="15.423" cy="77.807" r="0.473"/>
				<circle fill="#39B54A" cx="10.541" cy="74.848" r="0.473"/>
				<circle fill="#39B54A" cx="15.564" cy="76.273" r="0.307"/>
				<circle fill="#39B54A" cx="14.548" cy="79.785" r="0.308"/>
				<circle fill="#39B54A" cx="10.848" cy="75.967" r="0.308"/>
			</g>
			<g>
				<path fill="#8CC63F" d="M38.282,81.951c2.473-0.494,3.627-5.275,2.968-6.924c-0.66-1.65-3.628,4.699-3.628,4.699L38.282,81.951z
					"/>
				<path fill="#8CC63F" d="M36.838,77.953c-2.134-0.428-3.13-4.551-2.561-5.973s3.129,4.053,3.129,4.053L36.838,77.953z"/>
				<ellipse fill="#39B54A" cx="37.51" cy="91.299" rx="3.669" ry="0.584"/>
				<ellipse fill="#009245" cx="37.51" cy="91.299" rx="2.682" ry="0.428"/>
				<g>
					<polygon fill="#8CC63F" points="39.316,91.299 35.827,91.299 37.572,57.242 					"/>
					<polygon fill="#39B54A" points="38.695,91.021 37.624,91.021 37.572,57.242 					"/>
					<g>
						<path fill="#00C2FF" stroke="#F2F2F2" stroke-width="1.0731" stroke-miterlimit="10" d="M42.258,68.838
							c-1.686,0.699-3.617-0.1-4.319-1.785c-0.698-1.684-0.428-9.633-0.428-9.633s5.83,5.414,6.528,7.1
							C44.739,66.201,43.941,68.135,42.258,68.838z"/>
						<path fill="#00C2FF" stroke="#F2F2F2" stroke-width="1.0731" stroke-miterlimit="10" d="M48.928,52.673
							c0.699,1.683-0.1,3.618-1.783,4.317c-1.684,0.701-9.634,0.43-9.634,0.43s5.413-5.829,7.098-6.528
							C46.294,50.19,48.228,50.989,48.928,52.673z"/>
						<path fill="#00C2FF" stroke="#F2F2F2" stroke-width="1.0731" stroke-miterlimit="10" d="M32.764,46.004
							c1.686-0.701,3.618,0.098,4.319,1.781c0.699,1.684,0.428,9.635,0.428,9.635s-5.827-5.415-6.527-7.099
							C30.282,48.638,31.081,46.704,32.764,46.004z"/>
						<path fill="#00C2FF" stroke="#F2F2F2" stroke-width="1.0731" stroke-miterlimit="10" d="M26.094,62.166
							c-0.698-1.684,0.1-3.617,1.783-4.318c1.683-0.701,9.634-0.428,9.634-0.428s-5.414,5.826-7.098,6.529
							C28.728,64.648,26.794,63.85,26.094,62.166z"/>
						<path fill="#00C2FF" stroke="#F2F2F2" stroke-width="1.0731" stroke-miterlimit="10" d="M48.938,62.137
							c-0.694,1.686-2.625,2.486-4.313,1.791c-1.686-0.693-7.114-6.508-7.114-6.508s7.949-0.293,9.635,0.402
							C48.833,58.518,49.636,60.451,48.938,62.137z"/>
						<path fill="#00C2FF" stroke="#F2F2F2" stroke-width="1.0731" stroke-miterlimit="10" d="M42.227,45.991
							c1.686,0.696,2.489,2.626,1.793,4.313c-0.695,1.687-6.509,7.115-6.509,7.115s-0.292-7.95,0.403-9.635
							C38.61,46.1,40.542,45.296,42.227,45.991z"/>
						<path fill="#00C2FF" stroke="#F2F2F2" stroke-width="1.0731" stroke-miterlimit="10" d="M26.081,52.704
							c0.696-1.688,2.628-2.49,4.313-1.795c1.687,0.695,7.116,6.511,7.116,6.511s-7.949,0.291-9.634-0.404
							C26.189,56.32,25.387,54.387,26.081,52.704z"/>
						<path fill="#00C2FF" stroke="#F2F2F2" stroke-width="1.0731" stroke-miterlimit="10" d="M32.796,68.848
							c-1.688-0.695-2.49-2.625-1.795-4.314c0.696-1.686,6.51-7.113,6.51-7.113s0.293,7.947-0.404,9.635
							C36.411,68.74,34.48,69.543,32.796,68.848z"/>
					</g>
					<path fill="#FBD700" stroke="#F2F2F2" stroke-width="1.0731" stroke-miterlimit="10" d="M38.848,60.637
						c-1.776,0.74-3.815-0.102-4.554-1.879c-0.74-1.777,0.102-3.816,1.88-4.557c1.775-0.736,3.816,0.105,4.555,1.879
						C41.468,57.859,40.627,59.898,38.848,60.637z"/>
					<path fill="#FBD700" d="M38.848,60.637c-1.776,0.74-3.815-0.102-4.554-1.879c-0.74-1.777,0.102-3.816,1.88-4.557
						c1.775-0.736,3.816,0.105,4.555,1.879C41.468,57.859,40.627,59.898,38.848,60.637z"/>
					<circle fill="#F7931E" cx="36.631" cy="55.587" r="0.61"/>
					<circle fill="#F7931E" cx="38.822" cy="58.537" r="0.611"/>
					<circle fill="#F7931E" cx="36.721" cy="58.27" r="0.611"/>
					<circle fill="#F7931E" cx="35.457" cy="58.001" r="0.363"/>
					<circle fill="#F7931E" cx="39.991" cy="57.595" r="0.363"/>
					<path fill="#F7931E" d="M38.811,55.834c-0.185,0.078-0.397-0.01-0.475-0.195c-0.077-0.188,0.011-0.398,0.195-0.475
						c0.186-0.08,0.397,0.01,0.477,0.195C39.084,55.545,38.998,55.758,38.811,55.834z"/>
					<circle fill="#F7931E" cx="37.547" cy="56.907" r="0.363"/>
					<circle fill="#F7931E" cx="36.793" cy="59.88" r="0.363"/>
				</g>
				<circle fill="#39B54A" cx="40.402" cy="77.807" r="0.474"/>
				<circle fill="#39B54A" cx="35.52" cy="74.848" r="0.473"/>
				<circle fill="#39B54A" cx="40.543" cy="76.273" r="0.307"/>
				<circle fill="#39B54A" cx="39.527" cy="79.785" r="0.307"/>
				<circle fill="#39B54A" cx="35.827" cy="75.967" r="0.307"/>
			</g>
			<g>
				<path fill="#8CC63F" d="M63.261,81.951c2.474-0.494,3.628-5.275,2.969-6.924c-0.66-1.65-3.628,4.699-3.628,4.699L63.261,81.951z
					"/>
				<path fill="#8CC63F" d="M61.817,77.953c-2.134-0.428-3.13-4.551-2.561-5.973s3.129,4.053,3.129,4.053L61.817,77.953z"/>
				<ellipse fill="#39B54A" cx="62.489" cy="91.299" rx="3.669" ry="0.584"/>
				<ellipse fill="#009245" cx="62.489" cy="91.299" rx="2.682" ry="0.428"/>
				<g>
					<polygon fill="#8CC63F" points="64.296,91.299 60.807,91.299 62.551,57.242 					"/>
					<polygon fill="#39B54A" points="63.675,91.021 62.604,91.021 62.551,57.242 					"/>
					<g>
						<path fill="#FFFFFF" stroke="#F2F2F2" stroke-width="1.0731" stroke-miterlimit="10" d="M67.236,68.838
							c-1.685,0.699-3.616-0.1-4.318-1.785c-0.698-1.684-0.428-9.633-0.428-9.633s5.829,5.414,6.528,7.1
							C69.719,66.201,68.921,68.135,67.236,68.838z"/>
						<path fill="#FFFFFF" stroke="#F2F2F2" stroke-width="1.0731" stroke-miterlimit="10" d="M73.906,52.673
							c0.7,1.683-0.1,3.618-1.782,4.317c-1.684,0.701-9.634,0.43-9.634,0.43s5.413-5.829,7.098-6.528
							C71.273,50.19,73.207,50.989,73.906,52.673z"/>
						<path fill="#FFFFFF" stroke="#F2F2F2" stroke-width="1.0731" stroke-miterlimit="10" d="M57.743,46.004
							c1.686-0.701,3.618,0.098,4.319,1.781c0.699,1.684,0.428,9.635,0.428,9.635s-5.827-5.415-6.528-7.099
							C55.262,48.638,56.06,46.704,57.743,46.004z"/>
						<path fill="#FFFFFF" stroke="#F2F2F2" stroke-width="1.0731" stroke-miterlimit="10" d="M51.073,62.166
							c-0.699-1.684,0.1-3.617,1.783-4.318c1.683-0.701,9.634-0.428,9.634-0.428s-5.414,5.826-7.098,6.529
							C53.706,64.648,51.773,63.85,51.073,62.166z"/>
						<path fill="#FFFFFF" stroke="#F2F2F2" stroke-width="1.0731" stroke-miterlimit="10" d="M73.918,62.137
							c-0.694,1.686-2.626,2.486-4.313,1.791c-1.686-0.693-7.114-6.508-7.114-6.508s7.949-0.293,9.635,0.402
							C73.812,58.518,74.614,60.451,73.918,62.137z"/>
						<path fill="#FFFFFF" stroke="#F2F2F2" stroke-width="1.0731" stroke-miterlimit="10" d="M67.206,45.991
							c1.686,0.696,2.489,2.626,1.793,4.313c-0.695,1.687-6.509,7.115-6.509,7.115s-0.292-7.95,0.403-9.635
							C63.59,46.1,65.521,45.296,67.206,45.991z"/>
						<path fill="#FFFFFF" stroke="#F2F2F2" stroke-width="1.0731" stroke-miterlimit="10" d="M51.061,52.704
							c0.696-1.688,2.628-2.49,4.313-1.795c1.687,0.695,7.116,6.511,7.116,6.511s-7.949,0.291-9.634-0.404
							C51.169,56.32,50.366,54.387,51.061,52.704z"/>
						<path fill="#FFFFFF" stroke="#F2F2F2" stroke-width="1.0731" stroke-miterlimit="10" d="M57.774,68.848
							c-1.687-0.695-2.489-2.625-1.794-4.314c0.696-1.686,6.51-7.113,6.51-7.113s0.293,7.947-0.404,9.635
							C61.391,68.74,59.46,69.543,57.774,68.848z"/>
					</g>
					<path fill="#FBD700" stroke="#F2F2F2" stroke-width="1.0731" stroke-miterlimit="10" d="M63.827,60.637
						c-1.776,0.74-3.815-0.102-4.554-1.879c-0.74-1.777,0.102-3.816,1.88-4.557c1.775-0.736,3.816,0.105,4.554,1.879
						C66.447,57.859,65.605,59.898,63.827,60.637z"/>
					<path fill="#FBD700" d="M63.827,60.637c-1.776,0.74-3.815-0.102-4.554-1.879c-0.74-1.777,0.102-3.816,1.88-4.557
						c1.775-0.736,3.816,0.105,4.554,1.879C66.447,57.859,65.605,59.898,63.827,60.637z"/>
					<circle fill="#F7931E" cx="61.61" cy="55.587" r="0.61"/>
					<circle fill="#F7931E" cx="63.802" cy="58.537" r="0.611"/>
					<circle fill="#F7931E" cx="61.7" cy="58.27" r="0.611"/>
					<circle fill="#F7931E" cx="60.436" cy="58.001" r="0.363"/>
					<circle fill="#F7931E" cx="64.97" cy="57.595" r="0.363"/>
					<path fill="#F7931E" d="M63.79,55.834c-0.185,0.078-0.397-0.01-0.475-0.195c-0.077-0.188,0.011-0.398,0.195-0.475
						c0.186-0.08,0.397,0.01,0.476,0.195C64.063,55.545,63.978,55.758,63.79,55.834z"/>
					<circle fill="#F7931E" cx="62.527" cy="56.907" r="0.363"/>
					<circle fill="#F7931E" cx="61.772" cy="59.88" r="0.363"/>
				</g>
				<circle fill="#39B54A" cx="65.382" cy="77.807" r="0.474"/>
				<circle fill="#39B54A" cx="60.499" cy="74.848" r="0.474"/>
				<circle fill="#39B54A" cx="65.523" cy="76.273" r="0.307"/>
				<circle fill="#39B54A" cx="64.506" cy="79.785" r="0.307"/>
				<circle fill="#39B54A" cx="60.806" cy="75.967" r="0.307"/>
			</g>
			<g>
				<path fill="#8CC63F" d="M88.24,81.951c2.474-0.494,3.628-5.275,2.968-6.924c-0.659-1.65-3.627,4.699-3.627,4.699L88.24,81.951z"
					/>
				<path fill="#8CC63F" d="M86.796,77.953c-2.133-0.428-3.129-4.551-2.56-5.973c0.568-1.422,3.129,4.053,3.129,4.053L86.796,77.953
					z"/>
				<ellipse fill="#39B54A" cx="87.469" cy="91.299" rx="3.669" ry="0.584"/>
				<ellipse fill="#009245" cx="87.469" cy="91.299" rx="2.682" ry="0.428"/>
				<g>
					<polygon fill="#8CC63F" points="89.275,91.299 85.786,91.299 87.53,57.242 					"/>
					<polygon fill="#39B54A" points="88.654,91.021 87.583,91.021 87.53,57.242 					"/>
					<g>
						<path fill="#C1BEFF" stroke="#F2F2F2" stroke-width="1.0731" stroke-miterlimit="10" d="M92.216,68.838
							c-1.685,0.699-3.617-0.1-4.318-1.785c-0.698-1.684-0.428-9.633-0.428-9.633s5.829,5.414,6.527,7.1
							C94.698,66.201,93.899,68.135,92.216,68.838z"/>
						<path fill="#C1BEFF" stroke="#F2F2F2" stroke-width="1.0731" stroke-miterlimit="10" d="M98.886,52.673
							c0.699,1.683-0.1,3.618-1.782,4.317c-1.684,0.701-9.634,0.43-9.634,0.43s5.413-5.829,7.098-6.528
							C96.252,50.19,98.187,50.989,98.886,52.673z"/>
						<path fill="#C1BEFF" stroke="#F2F2F2" stroke-width="1.0731" stroke-miterlimit="10" d="M82.723,46.004
							c1.686-0.701,3.617,0.098,4.319,1.781c0.699,1.684,0.428,9.635,0.428,9.635s-5.827-5.415-6.528-7.099
							C80.241,48.638,81.039,46.704,82.723,46.004z"/>
						<path fill="#C1BEFF" stroke="#F2F2F2" stroke-width="1.0731" stroke-miterlimit="10" d="M76.053,62.166
							c-0.699-1.684,0.099-3.617,1.783-4.318c1.683-0.701,9.634-0.428,9.634-0.428s-5.414,5.826-7.098,6.529
							C78.686,64.648,76.753,63.85,76.053,62.166z"/>
						<path fill="#C1BEFF" stroke="#F2F2F2" stroke-width="1.0731" stroke-miterlimit="10" d="M98.897,62.137
							c-0.694,1.686-2.626,2.486-4.313,1.791c-1.686-0.693-7.114-6.508-7.114-6.508s7.949-0.293,9.635,0.402
							C98.791,58.518,99.594,60.451,98.897,62.137z"/>
						<path fill="#C1BEFF" stroke="#F2F2F2" stroke-width="1.0731" stroke-miterlimit="10" d="M92.186,45.991
							c1.686,0.696,2.489,2.626,1.793,4.313c-0.696,1.687-6.509,7.115-6.509,7.115s-0.292-7.95,0.402-9.635
							C88.569,46.1,90.5,45.296,92.186,45.991z"/>
						<path fill="#C1BEFF" stroke="#F2F2F2" stroke-width="1.0731" stroke-miterlimit="10" d="M76.04,52.704
							c0.696-1.688,2.628-2.49,4.313-1.795c1.687,0.695,7.116,6.511,7.116,6.511s-7.949,0.291-9.634-0.404
							C76.147,56.32,75.345,54.387,76.04,52.704z"/>
						<path fill="#C1BEFF" stroke="#F2F2F2" stroke-width="1.0731" stroke-miterlimit="10" d="M82.754,68.848
							c-1.687-0.695-2.489-2.625-1.794-4.314c0.695-1.686,6.51-7.113,6.51-7.113s0.293,7.947-0.405,9.635
							C86.37,68.74,84.438,69.543,82.754,68.848z"/>
					</g>
					<path fill="#FBD700" stroke="#F2F2F2" stroke-width="1.0731" stroke-miterlimit="10" d="M88.807,60.637
						c-1.776,0.74-3.816-0.102-4.554-1.879c-0.74-1.777,0.101-3.816,1.88-4.557c1.775-0.736,3.815,0.105,4.554,1.879
						C91.427,57.859,90.585,59.898,88.807,60.637z"/>
					<path fill="#FBD700" d="M88.807,60.637c-1.776,0.74-3.816-0.102-4.554-1.879c-0.74-1.777,0.101-3.816,1.88-4.557
						c1.775-0.736,3.815,0.105,4.554,1.879C91.427,57.859,90.585,59.898,88.807,60.637z"/>
					<circle fill="#F7931E" cx="86.59" cy="55.587" r="0.61"/>
					<circle fill="#F7931E" cx="88.781" cy="58.537" r="0.611"/>
					<circle fill="#F7931E" cx="86.68" cy="58.27" r="0.611"/>
					<circle fill="#F7931E" cx="85.415" cy="58.001" r="0.363"/>
					<circle fill="#F7931E" cx="89.95" cy="57.595" r="0.363"/>
					<path fill="#F7931E" d="M88.769,55.834c-0.185,0.078-0.396-0.01-0.474-0.195c-0.077-0.188,0.011-0.398,0.195-0.475
						c0.185-0.08,0.397,0.01,0.476,0.195C89.042,55.545,88.956,55.758,88.769,55.834z"/>
					<circle fill="#F7931E" cx="87.506" cy="56.907" r="0.363"/>
					<circle fill="#F7931E" cx="86.751" cy="59.88" r="0.363"/>
				</g>
				<circle fill="#39B54A" cx="90.361" cy="77.807" r="0.474"/>
				<circle fill="#39B54A" cx="85.479" cy="74.848" r="0.474"/>
				<circle fill="#39B54A" cx="90.502" cy="76.273" r="0.307"/>
				<circle fill="#39B54A" cx="89.486" cy="79.785" r="0.307"/>
				<circle fill="#39B54A" cx="85.786" cy="75.967" r="0.307"/>
			</g>
		</g>
	</g>
</g>
</svg>
