<?xml version="1.0" encoding="utf-8"?>
<!-- Generator: Adobe Illustrator 16.0.4, SVG Export Plug-In . SVG Version: 6.00 Build 0)  -->
<!DOCTYPE svg PUBLIC "-//W3C//DTD SVG 1.1//EN" "http://www.w3.org/Graphics/SVG/1.1/DTD/svg11.dtd">
<svg version="1.1" id="Layer_1" xmlns="http://www.w3.org/2000/svg" xmlns:xlink="http://www.w3.org/1999/xlink" x="0px" y="0px"
	 width="100px" height="100px" viewBox="0 0 100 100" enable-background="new 0 0 100 100" xml:space="preserve">
<g>
	<g>
		<g>
			<g>
				<path fill="#F7931E" d="M32.08,54.808c0,0-3.015-7.448-4.735-7.448c-1.723,0-4.739,7.448-4.739,7.448H32.08z"/>
				<g>
					<path fill="#F1C324" d="M35.036,55.023c0,0-2.804-7.448-4.398-7.448c-1.599,0-4.4,7.448-4.4,7.448H35.036z"/>
					<path fill="#F1C324" d="M28.45,55.023c0,0-2.803-7.448-4.401-7.448c-1.596,0-4.398,7.448-4.398,7.448H28.45z"/>
				</g>
				<g>
					<g>
						<path fill="#8CC63F" d="M28.297,77.9c3.653-0.687,5.362-7.328,4.387-9.62s-5.362,6.529-5.362,6.529L28.297,77.9z"/>
						<path fill="#8CC63F" d="M26.164,72.345c-3.15-0.593-4.623-6.32-3.783-8.296c0.84-1.977,4.623,5.63,4.623,5.63L26.164,72.345z"
							/>
						<path fill="#39B54A" d="M32.58,90.887c0-0.449-2.431-0.812-5.423-0.812c-2.993,0-5.423,0.363-5.423,0.812
							c0,0.448,2.43,0.812,5.423,0.812C30.149,91.698,32.58,91.335,32.58,90.887z"/>
						<ellipse fill="#009245" cx="27.157" cy="90.887" rx="3.962" ry="0.594"/>
						<g>
							<polygon fill="#8CC63F" points="29.826,90.887 24.669,90.887 27.249,59.55 							"/>
							<polygon fill="#39B54A" points="28.909,90.502 27.325,90.502 27.249,59.55 							"/>
						</g>
						<ellipse fill="#39B54A" cx="31.431" cy="72.142" rx="0.699" ry="0.657"/>
						<ellipse fill="#39B54A" cx="24.217" cy="68.031" rx="0.698" ry="0.66"/>
						<ellipse fill="#39B54A" cx="31.639" cy="70.012" rx="0.453" ry="0.426"/>
						<ellipse fill="#39B54A" cx="30.137" cy="74.891" rx="0.454" ry="0.428"/>
						<path fill="#39B54A" d="M25.126,69.587c0,0.236-0.205,0.425-0.457,0.425c-0.25,0-0.452-0.188-0.452-0.425
							c0-0.239,0.202-0.43,0.452-0.43C24.921,69.157,25.126,69.348,25.126,69.587z"/>
					</g>
				</g>
				<path fill="#F1C324" d="M18.577,47.789c0.04,0.043-0.15,0.626-0.21,0.947c-0.061,0.32-0.115,0.645-0.156,0.975
					c-0.043,0.329-0.076,0.663-0.096,1c-0.022,0.34-0.034,0.68-0.034,1.026c0,1.7,0.26,3.317,0.728,4.791
					c0.471,1.471,1.148,2.797,1.984,3.911c0.84,1.112,1.836,2.016,2.945,2.638c1.107,0.621,2.325,0.968,3.606,0.968
					c1.278,0,2.497-0.347,3.604-0.968c1.107-0.622,2.107-1.525,2.943-2.638c0.84-1.114,1.518-2.44,1.985-3.911
					c0.468-1.474,0.728-3.091,0.728-4.791c0-0.347-0.012-0.687-0.031-1.026c-0.023-0.337-0.055-0.671-0.096-1
					c-0.043-0.33-0.096-0.655-0.156-0.975c-0.063-0.321-0.164-0.898-0.211-0.947c-4.114,0-5.364,5.296-8.767,5.296
					S22.831,47.789,18.577,47.789z"/>
			</g>
			<g>
				<path fill="#F7931E" d="M54.737,54.808c0,0-3.015-7.448-4.738-7.448c-1.72,0-4.736,7.448-4.736,7.448H54.737z"/>
				<g>
					<path fill="#F1C324" d="M57.691,55.023c0,0-2.802-7.448-4.396-7.448c-1.599,0-4.402,7.448-4.402,7.448H57.691z"/>
					<path fill="#F1C324" d="M51.107,55.023c0,0-2.803-7.448-4.401-7.448c-1.596,0-4.397,7.448-4.397,7.448H51.107z"/>
				</g>
				<g>
					<g>
						<path fill="#8CC63F" d="M50.954,77.848c3.653-0.688,5.358-7.356,4.384-9.656c-0.975-2.303-5.359,6.554-5.359,6.554
							L50.954,77.848z"/>
						<path fill="#8CC63F" d="M48.818,72.271c-3.151-0.596-4.623-6.345-3.783-8.328c0.843-1.982,4.626,5.652,4.626,5.652
							L48.818,72.271z"/>
						<ellipse fill="#39B54A" cx="49.812" cy="90.885" rx="5.421" ry="0.815"/>
						<path fill="#009245" d="M53.776,90.885c0-0.33-1.775-0.599-3.966-0.599c-2.187,0-3.961,0.269-3.961,0.599
							c0,0.328,1.774,0.595,3.961,0.595C52.001,91.479,53.776,91.213,53.776,90.885z"/>
						<g>
							<polygon fill="#8CC63F" points="52.48,90.885 47.326,90.885 49.904,59.427 							"/>
							<polygon fill="#39B54A" points="51.563,90.497 49.982,90.497 49.904,59.427 							"/>
						</g>
						<ellipse fill="#39B54A" cx="54.087" cy="72.068" rx="0.7" ry="0.657"/>
						<path fill="#39B54A" d="M47.572,67.941c0,0.365-0.312,0.663-0.702,0.663c-0.386,0-0.698-0.298-0.698-0.663
							s0.312-0.659,0.698-0.659C47.261,67.282,47.572,67.576,47.572,67.941z"/>
						<ellipse fill="#39B54A" cx="54.294" cy="69.93" rx="0.455" ry="0.427"/>
						<ellipse fill="#39B54A" cx="52.793" cy="74.827" rx="0.455" ry="0.428"/>
						<ellipse fill="#39B54A" cx="47.325" cy="69.501" rx="0.455" ry="0.429"/>
					</g>
				</g>
				<path fill="#F1C324" d="M41.231,47.789c0.044,0.043-0.147,0.626-0.211,0.947c-0.061,0.32-0.112,0.645-0.155,0.975
					c-0.041,0.329-0.073,0.663-0.096,1c-0.021,0.34-0.031,0.68-0.031,1.026c0,1.7,0.26,3.317,0.728,4.791
					c0.467,1.471,1.145,2.797,1.984,3.911c0.837,1.112,1.836,2.016,2.944,2.638c1.108,0.621,2.326,0.968,3.604,0.968
					c1.281,0,2.498-0.347,3.607-0.968c1.107-0.622,2.104-1.525,2.943-2.638c0.837-1.114,1.516-2.44,1.985-3.911
					c0.468-1.474,0.727-3.091,0.727-4.791c0-0.347-0.011-0.687-0.034-1.026c-0.02-0.337-0.052-0.671-0.095-1
					c-0.041-0.33-0.095-0.655-0.156-0.975c-0.061-0.321-0.161-0.898-0.211-0.947c-4.112,0-5.364,5.296-8.767,5.296
					C46.596,53.085,45.488,47.789,41.231,47.789z"/>
			</g>
			<g>
				<path fill="#F7931E" d="M77.393,54.808c0,0-3.017-7.448-4.737-7.448c-1.723,0-4.738,7.448-4.738,7.448H77.393z"/>
				<g>
					<path fill="#F1C324" d="M80.347,55.023c0,0-2.802-7.448-4.398-7.448c-1.599,0-4.4,7.448-4.4,7.448H80.347z"/>
					<path fill="#F1C324" d="M73.762,55.023c0,0-2.803-7.448-4.402-7.448c-1.595,0-4.397,7.448-4.397,7.448H73.762z"/>
				</g>
				<g>
					<g>
						<path fill="#8CC63F" d="M73.607,77.795c3.654-0.692,5.362-7.385,4.388-9.691c-0.977-2.312-5.362,6.578-5.362,6.578
							L73.607,77.795z"/>
						<path fill="#8CC63F" d="M71.476,72.198c-3.151-0.599-4.624-6.371-3.784-8.36c0.841-1.991,4.624,5.672,4.624,5.672
							L71.476,72.198z"/>
						<path fill="#39B54A" d="M77.891,90.879c0-0.448-2.43-0.815-5.423-0.815s-5.423,0.367-5.423,0.815
							c0,0.453,2.43,0.819,5.423,0.819S77.891,91.332,77.891,90.879z"/>
						<path fill="#009245" d="M76.431,90.879c0-0.329-1.774-0.598-3.963-0.598c-2.187,0-3.962,0.269-3.962,0.598
							c0,0.333,1.775,0.6,3.962,0.6C74.656,91.479,76.431,91.212,76.431,90.879z"/>
						<g>
							<polygon fill="#8CC63F" points="75.137,90.879 69.981,90.879 72.561,59.305 							"/>
							<polygon fill="#39B54A" points="74.221,90.492 72.636,90.492 72.561,59.305 							"/>
						</g>
						<ellipse fill="#39B54A" cx="76.742" cy="71.993" rx="0.698" ry="0.661"/>
						<ellipse fill="#39B54A" cx="69.527" cy="67.851" rx="0.698" ry="0.666"/>
						<ellipse fill="#39B54A" cx="76.95" cy="69.846" rx="0.454" ry="0.431"/>
						<ellipse fill="#39B54A" cx="75.448" cy="74.763" rx="0.455" ry="0.431"/>
						<path fill="#39B54A" d="M70.437,69.418c0,0.238-0.205,0.428-0.455,0.428c-0.252,0-0.454-0.189-0.454-0.428
							c0-0.24,0.202-0.432,0.454-0.432C70.231,68.986,70.437,69.178,70.437,69.418z"/>
					</g>
				</g>
				<path fill="#F1C324" d="M63.889,47.789c0.04,0.043-0.15,0.626-0.211,0.947c-0.061,0.32-0.115,0.645-0.156,0.975
					c-0.042,0.329-0.074,0.663-0.094,1c-0.024,0.34-0.035,0.68-0.035,1.026c0,1.7,0.259,3.317,0.727,4.791
					c0.471,1.471,1.148,2.797,1.986,3.911c0.84,1.112,1.835,2.016,2.943,2.638c1.108,0.621,2.325,0.968,3.606,0.968
					c1.278,0,2.497-0.347,3.604-0.968c1.108-0.622,2.107-1.525,2.944-2.638c0.84-1.114,1.519-2.44,1.984-3.911
					c0.468-1.474,0.729-3.091,0.729-4.791c0-0.347-0.011-0.687-0.032-1.026c-0.022-0.337-0.055-0.671-0.096-1
					c-0.042-0.33-0.094-0.655-0.155-0.975c-0.063-0.321-0.165-0.898-0.211-0.947c-4.115,0-5.364,5.296-8.768,5.296
					C69.253,53.085,68.143,47.789,63.889,47.789z"/>
			</g>
		</g>
		<g>
			<g>
				<path fill="#C1272D" d="M20.754,38c0,0-3.017-7.447-4.736-7.447c-1.723,0-4.739,7.447-4.739,7.447H20.754z"/>
				<g>
					<path fill="#FF1D25" d="M23.708,38.217c0,0-2.802-7.449-4.398-7.449c-1.599,0-4.4,7.449-4.4,7.449H23.708z"/>
					<path fill="#FF1D25" d="M17.123,38.217c0,0-2.802-7.449-4.4-7.449c-1.597,0-4.398,7.449-4.398,7.449H17.123z"/>
				</g>
				<g>
					<g>
						<path fill="#8CC63F" d="M16.97,77.208c3.653-0.73,5.362-7.795,4.387-10.229c-0.975-2.438-5.362,6.943-5.362,6.943
							L16.97,77.208z"/>
						<path fill="#8CC63F" d="M14.837,71.301c-3.151-0.633-4.622-6.724-3.783-8.825c0.84-2.101,4.623,5.988,4.623,5.988
							L14.837,71.301z"/>
						<path fill="#39B54A" d="M21.252,91.02c0-0.477-2.43-0.862-5.423-0.862c-2.991,0-5.421,0.386-5.421,0.862
							s2.43,0.863,5.421,0.863C18.822,91.883,21.252,91.496,21.252,91.02z"/>
						<ellipse fill="#009245" cx="15.83" cy="91.02" rx="3.962" ry="0.631"/>
						<g>
							<polygon fill="#8CC63F" points="18.5,91.02 13.343,91.02 15.923,40.699 							"/>
							<polygon fill="#39B54A" points="17.582,90.61 15.997,90.61 15.923,40.699 							"/>
						</g>
						<circle fill="#39B54A" cx="20.104" cy="71.085" r="0.698"/>
						<circle fill="#39B54A" cx="12.89" cy="66.713" r="0.698"/>
						<circle fill="#39B54A" cx="20.312" cy="68.818" r="0.453"/>
						<circle fill="#39B54A" cx="18.809" cy="74.007" r="0.455"/>
						<path fill="#39B54A" d="M13.798,68.366c0,0.25-0.205,0.452-0.455,0.452c-0.252,0-0.453-0.202-0.453-0.452
							c0-0.255,0.201-0.457,0.453-0.457C13.593,67.909,13.798,68.111,13.798,68.366z"/>
					</g>
				</g>
				<path fill="#FF1D25" d="M7.25,30.983c0.041,0.042-0.15,0.625-0.211,0.946s-0.115,0.645-0.155,0.976
					c-0.043,0.329-0.075,0.663-0.095,1c-0.024,0.339-0.035,0.68-0.035,1.026c0,1.7,0.259,3.317,0.727,4.791
					c0.472,1.472,1.148,2.798,1.986,3.912c0.84,1.112,1.835,2.014,2.943,2.637s2.326,0.967,3.607,0.967
					c1.278,0,2.496-0.345,3.604-0.967s2.106-1.524,2.943-2.637c0.84-1.114,1.519-2.44,1.986-3.912
					c0.468-1.474,0.727-3.091,0.727-4.791c0-0.346-0.011-0.687-0.032-1.026c-0.022-0.337-0.055-0.671-0.095-1
					c-0.043-0.331-0.095-0.655-0.156-0.976c-0.062-0.32-0.165-0.897-0.211-0.946c-4.115,0-5.364,5.294-8.767,5.294
					S11.504,30.983,7.25,30.983z"/>
			</g>
			<g>
				<path fill="#C1272D" d="M43.411,38c0,0-3.017-7.447-4.739-7.447c-1.72,0-4.736,7.447-4.736,7.447H43.411z"/>
				<g>
					<path fill="#FF1D25" d="M46.365,38.217c0,0-2.802-7.449-4.398-7.449c-1.599,0-4.4,7.449-4.4,7.449H46.365z"/>
					<path fill="#FF1D25" d="M39.78,38.217c0,0-2.802-7.449-4.402-7.449c-1.595,0-4.396,7.449-4.396,7.449H39.78z"/>
				</g>
				<g>
					<g>
						<path fill="#8CC63F" d="M39.627,77.208c3.653-0.73,5.359-7.795,4.384-10.229c-0.976-2.438-5.359,6.943-5.359,6.943
							L39.627,77.208z"/>
						<path fill="#8CC63F" d="M37.492,71.301c-3.152-0.633-4.624-6.724-3.784-8.825c0.843-2.101,4.626,5.988,4.626,5.988
							L37.492,71.301z"/>
						<ellipse fill="#39B54A" cx="38.485" cy="91.02" rx="5.422" ry="0.862"/>
						<ellipse fill="#009245" cx="38.485" cy="91.02" rx="3.964" ry="0.631"/>
						<g>
							<polygon fill="#8CC63F" points="41.153,91.02 36,91.02 38.576,40.699 							"/>
							<polygon fill="#39B54A" points="40.235,90.61 38.654,90.61 38.576,40.699 							"/>
						</g>
						<circle fill="#39B54A" cx="42.76" cy="71.085" r="0.699"/>
						<path fill="#39B54A" d="M36.244,66.713c0,0.386-0.312,0.7-0.701,0.7c-0.387,0-0.698-0.314-0.698-0.7
							c0-0.387,0.312-0.7,0.698-0.7C35.933,66.013,36.244,66.326,36.244,66.713z"/>
						<circle fill="#39B54A" cx="42.967" cy="68.818" r="0.455"/>
						<circle fill="#39B54A" cx="41.466" cy="74.007" r="0.455"/>
						<path fill="#39B54A" d="M36.452,68.366c0,0.25-0.202,0.452-0.452,0.452c-0.252,0-0.457-0.202-0.457-0.452
							c0-0.255,0.205-0.457,0.457-0.457C36.25,67.909,36.452,68.111,36.452,68.366z"/>
					</g>
				</g>
				<path fill="#FF1D25" d="M29.904,30.983c0.044,0.042-0.147,0.625-0.211,0.946c-0.061,0.32-0.112,0.645-0.156,0.976
					c-0.039,0.329-0.071,0.663-0.095,1c-0.021,0.339-0.031,0.68-0.031,1.026c0,1.7,0.259,3.317,0.727,4.791
					c0.468,1.472,1.146,2.798,1.986,3.912c0.837,1.112,1.835,2.014,2.943,2.637s2.325,0.967,3.604,0.967
					c1.281,0,2.499-0.345,3.607-0.967c1.107-0.623,2.104-1.524,2.943-2.637c0.838-1.114,1.515-2.44,1.986-3.912
					c0.467-1.474,0.727-3.091,0.727-4.791c0-0.346-0.012-0.687-0.035-1.026c-0.02-0.337-0.052-0.671-0.096-1
					c-0.039-0.331-0.095-0.655-0.154-0.976c-0.061-0.32-0.163-0.897-0.211-0.946c-4.113,0-5.366,5.294-8.768,5.294
					C35.27,36.277,34.161,30.983,29.904,30.983z"/>
			</g>
			<g>
				<path fill="#C1272D" d="M66.064,38c0,0-3.016-7.447-4.736-7.447c-1.723,0-4.737,7.447-4.737,7.447H66.064z"/>
				<g>
					<path fill="#FF1D25" d="M69.02,38.217c0,0-2.802-7.449-4.397-7.449c-1.6,0-4.401,7.449-4.401,7.449H69.02z"/>
					<path fill="#FF1D25" d="M62.434,38.217c0,0-2.802-7.449-4.4-7.449c-1.597,0-4.398,7.449-4.398,7.449H62.434z"/>
				</g>
				<g>
					<g>
						<path fill="#8CC63F" d="M62.281,77.208c3.654-0.73,5.361-7.795,4.386-10.229c-0.975-2.438-5.36,6.943-5.36,6.943
							L62.281,77.208z"/>
						<path fill="#8CC63F" d="M60.147,71.301c-3.15-0.633-4.622-6.724-3.782-8.825c0.839-2.101,4.623,5.988,4.623,5.988
							L60.147,71.301z"/>
						<path fill="#39B54A" d="M66.564,91.02c0-0.477-2.431-0.862-5.423-0.862c-2.993,0-5.423,0.386-5.423,0.862
							s2.43,0.863,5.423,0.863C64.134,91.883,66.564,91.496,66.564,91.02z"/>
						<ellipse fill="#009245" cx="61.141" cy="91.02" rx="3.962" ry="0.631"/>
						<g>
							<polygon fill="#8CC63F" points="63.811,91.02 58.653,91.02 61.233,40.699 							"/>
							<polygon fill="#39B54A" points="62.893,90.61 61.309,90.61 61.233,40.699 							"/>
						</g>
						<circle fill="#39B54A" cx="65.415" cy="71.085" r="0.698"/>
						<circle fill="#39B54A" cx="58.2" cy="66.713" r="0.698"/>
						<circle fill="#39B54A" cx="65.623" cy="68.818" r="0.453"/>
						<circle fill="#39B54A" cx="64.122" cy="74.007" r="0.455"/>
						<path fill="#39B54A" d="M59.109,68.366c0,0.25-0.204,0.452-0.456,0.452c-0.251,0-0.453-0.202-0.453-0.452
							c0-0.255,0.202-0.457,0.453-0.457C58.905,67.909,59.109,68.111,59.109,68.366z"/>
					</g>
				</g>
				<path fill="#FF1D25" d="M52.562,30.983c0.04,0.042-0.149,0.625-0.21,0.946c-0.062,0.32-0.116,0.645-0.156,0.976
					c-0.044,0.329-0.075,0.663-0.096,1c-0.022,0.339-0.035,0.68-0.035,1.026c0,1.7,0.261,3.317,0.729,4.791
					c0.47,1.472,1.148,2.798,1.985,3.912c0.84,1.112,1.835,2.014,2.943,2.637c1.107,0.623,2.325,0.967,3.606,0.967
					c1.279,0,2.497-0.345,3.604-0.967c1.109-0.623,2.107-1.524,2.943-2.637c0.84-1.114,1.519-2.44,1.986-3.912
					c0.468-1.474,0.727-3.091,0.727-4.791c0-0.346-0.011-0.687-0.031-1.026c-0.023-0.337-0.055-0.671-0.095-1
					c-0.044-0.331-0.096-0.655-0.156-0.976c-0.063-0.32-0.164-0.897-0.21-0.946c-4.115,0-5.366,5.294-8.769,5.294
					C57.927,36.277,56.815,30.983,52.562,30.983z"/>
			</g>
			<g>
				<path fill="#C1272D" d="M88.722,38c0,0-3.016-7.447-4.738-7.447c-1.721,0-4.735,7.447-4.735,7.447H88.722z"/>
				<g>
					<path fill="#FF1D25" d="M91.677,38.217c0,0-2.803-7.449-4.397-7.449c-1.6,0-4.401,7.449-4.401,7.449H91.677z"/>
					<path fill="#FF1D25" d="M85.091,38.217c0,0-2.802-7.449-4.4-7.449c-1.597,0-4.398,7.449-4.398,7.449H85.091z"/>
				</g>
				<g>
					<g>
						<path fill="#8CC63F" d="M84.938,77.208c3.652-0.73,5.359-7.795,4.383-10.229c-0.975-2.438-5.359,6.943-5.359,6.943
							L84.938,77.208z"/>
						<path fill="#8CC63F" d="M82.803,71.301c-3.152-0.633-4.623-6.724-3.783-8.825c0.842-2.101,4.625,5.988,4.625,5.988
							L82.803,71.301z"/>
						<ellipse fill="#39B54A" cx="83.797" cy="91.02" rx="5.421" ry="0.862"/>
						<ellipse fill="#009245" cx="83.796" cy="91.02" rx="3.963" ry="0.631"/>
						<g>
							<polygon fill="#8CC63F" points="86.465,91.02 81.311,91.02 83.888,40.699 							"/>
							<polygon fill="#39B54A" points="85.547,90.61 83.966,90.61 83.888,40.699 							"/>
						</g>
						<circle fill="#39B54A" cx="88.071" cy="71.085" r="0.7"/>
						<circle fill="#39B54A" cx="80.856" cy="66.713" r="0.699"/>
						<circle fill="#39B54A" cx="88.278" cy="68.818" r="0.454"/>
						<circle fill="#39B54A" cx="86.778" cy="74.007" r="0.454"/>
						<path fill="#39B54A" d="M81.765,68.366c0,0.25-0.202,0.452-0.454,0.452c-0.251,0-0.455-0.202-0.455-0.452
							c0-0.255,0.204-0.457,0.455-0.457C81.562,67.909,81.765,68.111,81.765,68.366z"/>
					</g>
				</g>
				<path fill="#FF1D25" d="M75.215,30.983c0.044,0.042-0.146,0.625-0.21,0.946c-0.06,0.32-0.112,0.645-0.155,0.976
					c-0.041,0.329-0.072,0.663-0.096,1c-0.02,0.339-0.032,0.68-0.032,1.026c0,1.7,0.261,3.317,0.729,4.791
					c0.467,1.472,1.145,2.798,1.984,3.912c0.837,1.112,1.835,2.014,2.944,2.637c1.107,0.623,2.325,0.967,3.604,0.967
					c1.281,0,2.499-0.345,3.606-0.967c1.109-0.623,2.104-1.524,2.943-2.637c0.838-1.114,1.516-2.44,1.986-3.912
					c0.467-1.474,0.727-3.091,0.727-4.791c0-0.346-0.012-0.687-0.033-1.026c-0.021-0.337-0.053-0.671-0.096-1
					c-0.041-0.331-0.096-0.655-0.156-0.976s-0.161-0.897-0.211-0.946c-4.111,0-5.364,5.294-8.767,5.294S79.473,30.983,75.215,30.983
					z"/>
			</g>
		</g>
	</g>
</g>
</svg>
