<?xml version="1.0" encoding="utf-8"?>
<!-- Generator: Adobe Illustrator 19.2.1, SVG Export Plug-In . SVG Version: 6.00 Build 0)  -->
<svg version="1.1" xmlns="http://www.w3.org/2000/svg" xmlns:xlink="http://www.w3.org/1999/xlink" x="0px" y="0px"
	 viewBox="0 0 100 100" style="enable-background:new 0 0 100 100;" xml:space="preserve">
<style type="text/css">
	.st0{fill:#FFA400;}
	.st1{fill:#FFC300;}
	.st2{fill:#BECD00;}
	.st3{fill:#964B00;}
	.st4{fill:#713A00;}
	.st5{fill:#65B32E;}
	.st6{fill:#008737;}
	.st7{fill:#E62D87;}
	.st8{fill:#FF7BAC;}
	.st9{fill:#FCEE21;}
	.st10{fill:#CCCCCC;}
	.st11{fill:#B3B3B3;}
</style>
<g id="Calque_11">
</g>
<g id="Calque_12">
</g>
<g id="Calque_1">
</g>
<g id="Calque_8">
</g>
<g id="Calque_6">
</g>
<g id="Calque_4">
</g>
<g id="Pictos">
	<g>
		<path class="st6" d="M51.4,89.4c0-22.7,0-45.3,0-68c0-1.9-2.9-1.9-2.9,0c0,22.7,0,45.3,0,68C48.6,91.3,51.4,91.3,51.4,89.4
			L51.4,89.4z"/>
		<g>
			<path class="st7" d="M50,34c0,0-0.2,7.2,0,13.2L50,34L50,34z"/>
			<path class="st7" d="M63.9,49.1C62.4,45.5,50,34,50,34v13.2c0.1,3.2,0.4,6,0.9,7.2c1.5,3.6,5.6,5.3,9.2,3.8
				C63.7,56.7,65.3,52.6,63.9,49.1z"/>
			<polygon class="st7" points="50,34 50,34 50,34 			"/>
			<path class="st7" d="M74.2,23.9c-1.5-3.6-5.6-5.3-9.2-3.8C61.5,21.6,50,34,50,34v0c0,0,16.9,0.6,20.5-0.9
				C74,31.6,75.7,27.5,74.2,23.9z"/>
			<path class="st8" d="M49.1,13.5c-1.5-3.6-5.6-5.3-9.2-3.8c-3.6,1.5-5.3,5.6-3.8,9.2C37.6,22.5,50,34,50,34s0,0,0,0V20.7
				C49.9,17.6,49.6,14.8,49.1,13.5z"/>
			<path class="st7" d="M50,20.7V34C50,33.9,50.2,26.7,50,20.7z"/>
			<path class="st8" d="M29.5,34.9c-3.6,1.5-5.3,5.6-3.8,9.2c1.5,3.6,5.6,5.3,9.2,3.8C38.5,46.4,50,34,50,34S33.1,33.4,29.5,34.9z"
				/>
			<path class="st7" d="M70.5,34.8C66.9,33.4,50,34,50,34v0c0,0,11.5,12.3,15.1,13.8c3.6,1.5,7.7-0.2,9.2-3.8
				C75.7,40.4,74,36.3,70.5,34.8z"/>
			<polygon class="st7" points="50,34 50,34 50,34 			"/>
			<path class="st7" d="M50,34L50,34l0-14C49.7,26.1,50,34,50,34z"/>
			<path class="st7" d="M60,9.7c-3.6-1.5-7.7,0.2-9.2,3.8c-0.5,1.1-0.7,3.6-0.9,6.4v14c0,0,12.3-11.5,13.8-15.1
				C65.3,15.3,63.6,11.2,60,9.7z"/>
			<path class="st8" d="M34.9,20.2c-3.6-1.5-7.7,0.2-9.2,3.8c-1.5,3.6,0.2,7.7,3.8,9.2C33.1,34.6,50,34,50,34S38.5,21.6,34.9,20.2z"
				/>
			<path class="st8" d="M50,34c0,0-12.3,11.5-13.8,15.1c-1.5,3.6,0.2,7.7,3.8,9.2c3.6,1.5,7.7-0.2,9.2-3.8c0.5-1.1,0.7-3.6,0.9-6.4
				L50,34C50,34,50,34,50,34z"/>
			<path class="st7" d="M50,34v14C50.3,42,50,34.1,50,34z"/>
			<path class="st1" d="M56.8,31.1c-1.2-2.8-3.9-4.6-6.8-4.6v14.8c0.9,0,1.9-0.2,2.8-0.6C56.6,39.3,58.4,34.9,56.8,31.1z"/>
			<path class="st9" d="M47.2,27.2c-3.8,1.6-5.6,5.9-4,9.7c1.2,2.8,3.9,4.6,6.8,4.6V26.6C49.1,26.6,48.1,26.8,47.2,27.2z"/>
		</g>
	</g>
</g>
<g id="Palisade">
</g>
<g id="Calque_2">
</g>
<g id="Calque_5">
</g>
</svg>
